<?xml version="1.0" encoding="UTF-8" standalone="no"?>
<!DOCTYPE svg PUBLIC "-//W3C//DTD SVG 1.1//EN" "http://www.w3.org/Graphics/SVG/1.1/DTD/svg11.dtd">
<svg width="100%" height="100%" viewBox="0 0 681 500" version="1.1" xmlns="http://www.w3.org/2000/svg" xmlns:xlink="http://www.w3.org/1999/xlink" xml:space="preserve" xmlns:serif="http://www.serif.com/" style="fill-rule:evenodd;clip-rule:evenodd;stroke-linejoin:round;stroke-miterlimit:2;">
    <g transform="matrix(1.49883,0.126411,-0.126411,1.49883,-580.809,-536.581)">
        <g transform="matrix(0.614747,0,0,0.490797,-195.593,273.508)">
            <circle cx="1378.67" cy="391.775" r="301.246" style="fill:rgb(164,178,90);"/>
        </g>
        <g transform="matrix(0.664825,0,0,0.664825,162.104,265.307)">
            <g transform="matrix(96,0,0,96,493.935,333.809)">
                <path d="M0.52,-0.707L0.52,-0.571L0.23,-0.571L0.23,-0.416L0.454,-0.416L0.454,-0.286L0.23,-0.286L0.23,-0L0.059,-0L0.059,-0.707L0.52,-0.707Z" style="fill:white;fill-rule:nonzero;"/>
            </g>
            <g transform="matrix(96,0,0,96,546.639,333.809)">
                <path d="M0.589,-0.294C0.589,-0.28 0.587,-0.265 0.584,-0.248L0.197,-0.248C0.199,-0.206 0.21,-0.176 0.229,-0.158C0.248,-0.139 0.273,-0.13 0.303,-0.13C0.328,-0.13 0.349,-0.136 0.366,-0.149C0.383,-0.162 0.394,-0.178 0.399,-0.198L0.58,-0.198C0.573,-0.159 0.557,-0.124 0.532,-0.093C0.507,-0.062 0.476,-0.037 0.438,-0.02C0.4,-0.002 0.358,0.007 0.311,0.007C0.256,0.007 0.208,-0.005 0.166,-0.028C0.123,-0.05 0.09,-0.084 0.066,-0.127C0.042,-0.17 0.03,-0.221 0.03,-0.279C0.03,-0.338 0.042,-0.389 0.066,-0.432C0.089,-0.474 0.122,-0.507 0.165,-0.531C0.208,-0.554 0.256,-0.565 0.311,-0.565C0.366,-0.565 0.415,-0.554 0.457,-0.531C0.499,-0.508 0.532,-0.476 0.555,-0.436C0.578,-0.395 0.589,-0.347 0.589,-0.294ZM0.416,-0.32C0.417,-0.357 0.407,-0.384 0.387,-0.403C0.366,-0.421 0.341,-0.43 0.311,-0.43C0.28,-0.43 0.254,-0.421 0.233,-0.402C0.212,-0.383 0.201,-0.356 0.198,-0.32L0.416,-0.32Z" style="fill:white;fill-rule:nonzero;"/>
            </g>
            <g transform="matrix(96,0,0,96,606.063,333.809)">
                <path d="M0.589,-0.294C0.589,-0.28 0.587,-0.265 0.584,-0.248L0.197,-0.248C0.199,-0.206 0.21,-0.176 0.229,-0.158C0.248,-0.139 0.273,-0.13 0.303,-0.13C0.328,-0.13 0.349,-0.136 0.366,-0.149C0.383,-0.162 0.394,-0.178 0.399,-0.198L0.58,-0.198C0.573,-0.159 0.557,-0.124 0.532,-0.093C0.507,-0.062 0.476,-0.037 0.438,-0.02C0.4,-0.002 0.358,0.007 0.311,0.007C0.256,0.007 0.208,-0.005 0.166,-0.028C0.123,-0.05 0.09,-0.084 0.066,-0.127C0.042,-0.17 0.03,-0.221 0.03,-0.279C0.03,-0.338 0.042,-0.389 0.066,-0.432C0.089,-0.474 0.122,-0.507 0.165,-0.531C0.208,-0.554 0.256,-0.565 0.311,-0.565C0.366,-0.565 0.415,-0.554 0.457,-0.531C0.499,-0.508 0.532,-0.476 0.555,-0.436C0.578,-0.395 0.589,-0.347 0.589,-0.294ZM0.416,-0.32C0.417,-0.357 0.407,-0.384 0.387,-0.403C0.366,-0.421 0.341,-0.43 0.311,-0.43C0.28,-0.43 0.254,-0.421 0.233,-0.402C0.212,-0.383 0.201,-0.356 0.198,-0.32L0.416,-0.32Z" style="fill:white;fill-rule:nonzero;"/>
            </g>
            <g transform="matrix(96,0,0,96,665.487,333.809)">
                <path d="M0.271,-0.565C0.314,-0.565 0.35,-0.555 0.381,-0.536C0.412,-0.517 0.434,-0.49 0.448,-0.457L0.448,-0.74L0.619,-0.74L0.619,-0L0.448,-0L0.448,-0.101C0.434,-0.068 0.412,-0.041 0.381,-0.022C0.35,-0.003 0.314,0.007 0.271,0.007C0.225,0.007 0.184,-0.005 0.148,-0.028C0.111,-0.05 0.083,-0.084 0.062,-0.127C0.041,-0.17 0.03,-0.221 0.03,-0.279C0.03,-0.338 0.041,-0.389 0.062,-0.432C0.083,-0.474 0.111,-0.507 0.148,-0.531C0.184,-0.554 0.225,-0.565 0.271,-0.565ZM0.326,-0.415C0.289,-0.415 0.26,-0.403 0.238,-0.379C0.215,-0.355 0.204,-0.322 0.204,-0.279C0.204,-0.236 0.215,-0.203 0.238,-0.179C0.26,-0.155 0.289,-0.143 0.326,-0.143C0.362,-0.143 0.392,-0.155 0.415,-0.18C0.438,-0.205 0.449,-0.238 0.449,-0.279C0.449,-0.321 0.438,-0.354 0.415,-0.379C0.392,-0.403 0.362,-0.415 0.326,-0.415Z" style="fill:white;fill-rule:nonzero;"/>
            </g>
            <g transform="matrix(96,0,0,96,730.575,333.809)">
                <path d="M0.407,-0.565C0.453,-0.565 0.494,-0.554 0.531,-0.531C0.567,-0.507 0.596,-0.474 0.617,-0.432C0.638,-0.389 0.648,-0.338 0.648,-0.279C0.648,-0.221 0.638,-0.17 0.617,-0.127C0.596,-0.084 0.567,-0.05 0.531,-0.028C0.494,-0.005 0.453,0.007 0.407,0.007C0.364,0.007 0.328,-0.003 0.297,-0.022C0.266,-0.041 0.244,-0.068 0.23,-0.101L0.23,-0L0.059,-0L0.059,-0.74L0.23,-0.74L0.23,-0.457C0.244,-0.49 0.266,-0.517 0.297,-0.536C0.328,-0.555 0.364,-0.565 0.407,-0.565ZM0.352,-0.415C0.316,-0.415 0.286,-0.403 0.264,-0.379C0.241,-0.354 0.229,-0.321 0.229,-0.279C0.229,-0.238 0.241,-0.205 0.264,-0.18C0.286,-0.155 0.316,-0.143 0.352,-0.143C0.389,-0.143 0.418,-0.155 0.441,-0.179C0.463,-0.203 0.474,-0.236 0.474,-0.279C0.474,-0.322 0.463,-0.355 0.441,-0.379C0.418,-0.403 0.389,-0.415 0.352,-0.415Z" style="fill:white;fill-rule:nonzero;"/>
            </g>
            <g transform="matrix(96,0,0,96,795.663,333.809)">
                <path d="M0.271,-0.565C0.314,-0.565 0.35,-0.555 0.381,-0.536C0.412,-0.517 0.434,-0.49 0.449,-0.457L0.449,-0.558L0.619,-0.558L0.619,-0L0.449,-0L0.449,-0.101C0.434,-0.068 0.412,-0.041 0.381,-0.022C0.35,-0.003 0.314,0.007 0.271,0.007C0.225,0.007 0.184,-0.005 0.148,-0.028C0.111,-0.05 0.083,-0.084 0.062,-0.127C0.041,-0.17 0.03,-0.221 0.03,-0.279C0.03,-0.338 0.041,-0.389 0.062,-0.432C0.083,-0.474 0.111,-0.507 0.148,-0.531C0.184,-0.554 0.225,-0.565 0.271,-0.565ZM0.326,-0.415C0.289,-0.415 0.26,-0.403 0.238,-0.379C0.215,-0.355 0.204,-0.322 0.204,-0.279C0.204,-0.236 0.215,-0.203 0.238,-0.179C0.26,-0.155 0.289,-0.143 0.326,-0.143C0.362,-0.143 0.392,-0.155 0.415,-0.18C0.438,-0.205 0.449,-0.238 0.449,-0.279C0.449,-0.321 0.438,-0.354 0.415,-0.379C0.392,-0.403 0.362,-0.415 0.326,-0.415Z" style="fill:white;fill-rule:nonzero;"/>
            </g>
            <g transform="matrix(96,0,0,96,860.751,333.809)">
                <path d="M0.311,-0.565C0.383,-0.565 0.443,-0.545 0.492,-0.506C0.541,-0.466 0.571,-0.411 0.584,-0.342L0.403,-0.342C0.398,-0.366 0.387,-0.385 0.37,-0.398C0.353,-0.411 0.332,-0.418 0.307,-0.418C0.277,-0.418 0.252,-0.406 0.233,-0.383C0.214,-0.359 0.204,-0.324 0.204,-0.279C0.204,-0.234 0.214,-0.199 0.233,-0.176C0.252,-0.152 0.277,-0.14 0.307,-0.14C0.332,-0.14 0.353,-0.147 0.37,-0.16C0.387,-0.173 0.398,-0.192 0.403,-0.216L0.584,-0.216C0.571,-0.147 0.541,-0.092 0.492,-0.053C0.443,-0.013 0.383,0.007 0.311,0.007C0.256,0.007 0.208,-0.005 0.166,-0.028C0.123,-0.05 0.09,-0.084 0.066,-0.127C0.042,-0.17 0.03,-0.221 0.03,-0.279C0.03,-0.338 0.042,-0.389 0.066,-0.432C0.089,-0.474 0.122,-0.507 0.165,-0.531C0.208,-0.554 0.256,-0.565 0.311,-0.565Z" style="fill:white;fill-rule:nonzero;"/>
            </g>
            <g transform="matrix(96,0,0,96,919.695,333.809)">
                <path d="M0.397,-0L0.23,-0.237L0.23,-0L0.059,-0L0.059,-0.74L0.23,-0.74L0.23,-0.334L0.397,-0.558L0.598,-0.558L0.373,-0.279L0.603,-0L0.397,-0Z" style="fill:white;fill-rule:nonzero;"/>
            </g>
        </g>
    </g>
</svg>
