<?xml version="1.0" encoding="UTF-8" standalone="no"?>
<!DOCTYPE svg PUBLIC "-//W3C//DTD SVG 1.1//EN" "http://www.w3.org/Graphics/SVG/1.1/DTD/svg11.dtd">
<svg width="100%" height="100%" viewBox="0 0 681 500" version="1.1" xmlns="http://www.w3.org/2000/svg" xmlns:xlink="http://www.w3.org/1999/xlink" xml:space="preserve" xmlns:serif="http://www.serif.com/" style="fill-rule:evenodd;clip-rule:evenodd;stroke-linejoin:round;stroke-miterlimit:2;">
    <g transform="matrix(1.50171,-0.0856576,0.0856576,1.50171,-690.426,-399.913)">
        <g transform="matrix(0.614747,0,0,0.490797,-195.593,273.508)">
            <circle cx="1378.67" cy="391.775" r="301.246" style="fill:rgb(255,197,0);"/>
        </g>
        <g transform="matrix(0.664825,0,0,0.664825,162.104,265.307)">
            <g transform="matrix(96,0,0,96,485.823,333.809)">
                <path d="M0.695,-0.355C0.695,-0.286 0.68,-0.224 0.651,-0.171C0.621,-0.117 0.578,-0.075 0.523,-0.045C0.467,-0.015 0.401,-0 0.326,-0L0.059,-0L0.059,-0.707L0.326,-0.707C0.402,-0.707 0.468,-0.692 0.523,-0.663C0.578,-0.634 0.621,-0.592 0.651,-0.539C0.68,-0.486 0.695,-0.424 0.695,-0.355ZM0.311,-0.153C0.378,-0.153 0.43,-0.171 0.467,-0.206C0.503,-0.241 0.522,-0.291 0.522,-0.355C0.522,-0.419 0.503,-0.469 0.467,-0.504C0.43,-0.539 0.378,-0.557 0.311,-0.557L0.23,-0.557L0.23,-0.153L0.311,-0.153Z" style="fill:white;fill-rule:nonzero;"/>
            </g>
            <g transform="matrix(96,0,0,96,556.191,333.809)">
                <path d="M0.32,-0.565C0.375,-0.565 0.425,-0.554 0.469,-0.531C0.512,-0.507 0.547,-0.474 0.572,-0.431C0.596,-0.388 0.609,-0.337 0.609,-0.279C0.609,-0.221 0.596,-0.17 0.572,-0.127C0.547,-0.084 0.512,-0.05 0.469,-0.028C0.425,-0.005 0.375,0.007 0.32,0.007C0.265,0.007 0.215,-0.005 0.171,-0.028C0.127,-0.05 0.092,-0.084 0.068,-0.127C0.043,-0.17 0.03,-0.221 0.03,-0.279C0.03,-0.337 0.043,-0.388 0.068,-0.431C0.092,-0.474 0.127,-0.507 0.171,-0.531C0.215,-0.554 0.265,-0.565 0.32,-0.565ZM0.32,-0.417C0.287,-0.417 0.26,-0.405 0.238,-0.382C0.215,-0.358 0.204,-0.324 0.204,-0.279C0.204,-0.234 0.215,-0.2 0.238,-0.177C0.26,-0.154 0.287,-0.142 0.32,-0.142C0.353,-0.142 0.38,-0.154 0.402,-0.177C0.424,-0.2 0.435,-0.234 0.435,-0.279C0.435,-0.324 0.424,-0.358 0.402,-0.382C0.38,-0.405 0.353,-0.417 0.32,-0.417Z" style="fill:white;fill-rule:nonzero;"/>
            </g>
            <g transform="matrix(96,0,0,96,617.535,333.809)">
                <path d="M0.875,-0.558L0.732,-0L0.541,-0L0.44,-0.374L0.338,-0L0.147,-0L0.004,-0.558L0.175,-0.558L0.249,-0.156L0.353,-0.558L0.535,-0.558L0.642,-0.155L0.716,-0.558L0.875,-0.558Z" style="fill:white;fill-rule:nonzero;"/>
            </g>
            <g transform="matrix(96,0,0,96,701.823,333.809)">
                <path d="M0.413,-0.564C0.477,-0.564 0.528,-0.543 0.566,-0.5C0.603,-0.457 0.622,-0.399 0.622,-0.324L0.622,-0L0.451,-0L0.451,-0.304C0.451,-0.341 0.441,-0.371 0.422,-0.392C0.402,-0.413 0.376,-0.423 0.343,-0.423C0.308,-0.423 0.281,-0.412 0.261,-0.39C0.24,-0.368 0.23,-0.337 0.23,-0.296L0.23,-0L0.059,-0L0.059,-0.558L0.23,-0.558L0.23,-0.456C0.246,-0.489 0.27,-0.516 0.302,-0.535C0.333,-0.554 0.37,-0.564 0.413,-0.564Z" style="fill:white;fill-rule:nonzero;"/>
            </g>
            <g transform="matrix(96,0,0,96,766.719,333.809)">
                <rect x="0.059" y="-0.74" width="0.171" height="0.74" style="fill:white;fill-rule:nonzero;"/>
            </g>
            <g transform="matrix(96,0,0,96,794.463,333.809)">
                <path d="M0.32,-0.565C0.375,-0.565 0.425,-0.554 0.469,-0.531C0.512,-0.507 0.547,-0.474 0.572,-0.431C0.596,-0.388 0.609,-0.337 0.609,-0.279C0.609,-0.221 0.596,-0.17 0.572,-0.127C0.547,-0.084 0.512,-0.05 0.469,-0.028C0.425,-0.005 0.375,0.007 0.32,0.007C0.265,0.007 0.215,-0.005 0.171,-0.028C0.127,-0.05 0.092,-0.084 0.068,-0.127C0.043,-0.17 0.03,-0.221 0.03,-0.279C0.03,-0.337 0.043,-0.388 0.068,-0.431C0.092,-0.474 0.127,-0.507 0.171,-0.531C0.215,-0.554 0.265,-0.565 0.32,-0.565ZM0.32,-0.417C0.287,-0.417 0.26,-0.405 0.238,-0.382C0.215,-0.358 0.204,-0.324 0.204,-0.279C0.204,-0.234 0.215,-0.2 0.238,-0.177C0.26,-0.154 0.287,-0.142 0.32,-0.142C0.353,-0.142 0.38,-0.154 0.402,-0.177C0.424,-0.2 0.435,-0.234 0.435,-0.279C0.435,-0.324 0.424,-0.358 0.402,-0.382C0.38,-0.405 0.353,-0.417 0.32,-0.417Z" style="fill:white;fill-rule:nonzero;"/>
            </g>
            <g transform="matrix(96,0,0,96,855.807,333.809)">
                <path d="M0.271,-0.565C0.314,-0.565 0.35,-0.555 0.381,-0.536C0.412,-0.517 0.434,-0.49 0.449,-0.457L0.449,-0.558L0.619,-0.558L0.619,-0L0.449,-0L0.449,-0.101C0.434,-0.068 0.412,-0.041 0.381,-0.022C0.35,-0.003 0.314,0.007 0.271,0.007C0.225,0.007 0.184,-0.005 0.148,-0.028C0.111,-0.05 0.083,-0.084 0.062,-0.127C0.041,-0.17 0.03,-0.221 0.03,-0.279C0.03,-0.338 0.041,-0.389 0.062,-0.432C0.083,-0.474 0.111,-0.507 0.148,-0.531C0.184,-0.554 0.225,-0.565 0.271,-0.565ZM0.326,-0.415C0.289,-0.415 0.26,-0.403 0.238,-0.379C0.215,-0.355 0.204,-0.322 0.204,-0.279C0.204,-0.236 0.215,-0.203 0.238,-0.179C0.26,-0.155 0.289,-0.143 0.326,-0.143C0.362,-0.143 0.392,-0.155 0.415,-0.18C0.438,-0.205 0.449,-0.238 0.449,-0.279C0.449,-0.321 0.438,-0.354 0.415,-0.379C0.392,-0.403 0.362,-0.415 0.326,-0.415Z" style="fill:white;fill-rule:nonzero;"/>
            </g>
            <g transform="matrix(96,0,0,96,920.895,333.809)">
                <path d="M0.271,-0.565C0.314,-0.565 0.35,-0.555 0.381,-0.536C0.412,-0.517 0.434,-0.49 0.448,-0.457L0.448,-0.74L0.619,-0.74L0.619,-0L0.448,-0L0.448,-0.101C0.434,-0.068 0.412,-0.041 0.381,-0.022C0.35,-0.003 0.314,0.007 0.271,0.007C0.225,0.007 0.184,-0.005 0.148,-0.028C0.111,-0.05 0.083,-0.084 0.062,-0.127C0.041,-0.17 0.03,-0.221 0.03,-0.279C0.03,-0.338 0.041,-0.389 0.062,-0.432C0.083,-0.474 0.111,-0.507 0.148,-0.531C0.184,-0.554 0.225,-0.565 0.271,-0.565ZM0.326,-0.415C0.289,-0.415 0.26,-0.403 0.238,-0.379C0.215,-0.355 0.204,-0.322 0.204,-0.279C0.204,-0.236 0.215,-0.203 0.238,-0.179C0.26,-0.155 0.289,-0.143 0.326,-0.143C0.362,-0.143 0.392,-0.155 0.415,-0.18C0.438,-0.205 0.449,-0.238 0.449,-0.279C0.449,-0.321 0.438,-0.354 0.415,-0.379C0.392,-0.403 0.362,-0.415 0.326,-0.415Z" style="fill:white;fill-rule:nonzero;"/>
            </g>
        </g>
    </g>
</svg>
