<?xml version="1.0" encoding="UTF-8" standalone="no"?>
<!DOCTYPE svg PUBLIC "-//W3C//DTD SVG 1.1//EN" "http://www.w3.org/Graphics/SVG/1.1/DTD/svg11.dtd">
<svg width="100%" height="100%" viewBox="0 0 1936 923" version="1.1" xmlns="http://www.w3.org/2000/svg" xmlns:xlink="http://www.w3.org/1999/xlink" xml:space="preserve" xmlns:serif="http://www.serif.com/" style="fill-rule:evenodd;clip-rule:evenodd;stroke-linejoin:round;stroke-miterlimit:2;">
    <g transform="matrix(1.28581,0,0,1.28581,816.323,39.4353)">
        <g transform="matrix(0.717989,0,0,0.722658,-335.485,186.219)">
            <circle cx="1378.67" cy="391.775" r="301.246" style="fill:rgb(237,214,46);"/>
        </g>
        <g transform="matrix(0.777719,0,0,0.777719,117.715,152.114)">
            <g transform="matrix(75,0,0,75,564.812,295.169)">
                <path d="M0.505,-0.705L0.505,-0.631L0.306,-0.631L0.306,0L0.215,0L0.215,-0.631L0.016,-0.631L0.016,-0.705L0.505,-0.705Z" style="fill:rgb(119,147,0);fill-rule:nonzero;"/>
            </g>
            <g transform="matrix(75,0,0,75,603.962,295.169)">
                <path d="M0.298,-0.556C0.351,-0.556 0.397,-0.543 0.434,-0.516C0.47,-0.489 0.496,-0.454 0.511,-0.409L0.511,-0.549L0.602,-0.549L0.602,0L0.511,0L0.511,-0.14C0.496,-0.095 0.47,-0.06 0.434,-0.033C0.397,-0.006 0.351,0.007 0.298,0.007C0.249,0.007 0.206,-0.004 0.168,-0.027C0.13,-0.05 0.1,-0.082 0.079,-0.125C0.057,-0.167 0.046,-0.217 0.046,-0.274C0.046,-0.331 0.057,-0.381 0.079,-0.424C0.1,-0.467 0.13,-0.499 0.168,-0.522C0.206,-0.545 0.249,-0.556 0.298,-0.556ZM0.324,-0.475C0.268,-0.475 0.223,-0.457 0.19,-0.422C0.156,-0.386 0.139,-0.337 0.139,-0.274C0.139,-0.211 0.156,-0.162 0.19,-0.127C0.223,-0.091 0.268,-0.073 0.324,-0.073C0.36,-0.073 0.392,-0.081 0.421,-0.098C0.449,-0.115 0.471,-0.138 0.487,-0.169C0.503,-0.199 0.511,-0.234 0.511,-0.274C0.511,-0.314 0.503,-0.349 0.487,-0.38C0.471,-0.411 0.449,-0.434 0.421,-0.451C0.392,-0.467 0.36,-0.475 0.324,-0.475ZM0.191,-0.674C0.191,-0.688 0.196,-0.7 0.206,-0.71C0.215,-0.719 0.227,-0.724 0.241,-0.724C0.255,-0.724 0.267,-0.719 0.277,-0.71C0.286,-0.7 0.291,-0.688 0.291,-0.674C0.291,-0.661 0.286,-0.649 0.277,-0.64C0.267,-0.63 0.255,-0.625 0.241,-0.625C0.227,-0.625 0.215,-0.63 0.206,-0.64C0.196,-0.649 0.191,-0.661 0.191,-0.674ZM0.357,-0.674C0.357,-0.688 0.362,-0.7 0.372,-0.71C0.381,-0.719 0.393,-0.724 0.407,-0.724C0.421,-0.724 0.433,-0.719 0.443,-0.71C0.452,-0.7 0.457,-0.688 0.457,-0.674C0.457,-0.661 0.452,-0.649 0.443,-0.64C0.433,-0.63 0.421,-0.625 0.407,-0.625C0.393,-0.625 0.381,-0.63 0.372,-0.64C0.362,-0.649 0.357,-0.661 0.357,-0.674Z" style="fill:rgb(119,147,0);fill-rule:nonzero;"/>
            </g>
            <g transform="matrix(75,0,0,75,654.512,295.169)">
                <path d="M0.298,-0.556C0.351,-0.556 0.397,-0.543 0.434,-0.516C0.47,-0.489 0.496,-0.454 0.511,-0.409L0.511,-0.549L0.602,-0.549L0.602,0.009C0.602,0.06 0.591,0.105 0.57,0.144C0.549,0.183 0.519,0.214 0.48,0.236C0.441,0.258 0.396,0.269 0.345,0.269C0.271,0.269 0.211,0.251 0.164,0.216C0.117,0.18 0.088,0.132 0.075,0.071L0.165,0.071C0.176,0.108 0.196,0.136 0.226,0.158C0.255,0.179 0.293,0.189 0.34,0.189C0.389,0.189 0.43,0.173 0.463,0.142C0.495,0.11 0.511,0.066 0.511,0.009L0.511,-0.14C0.496,-0.095 0.47,-0.06 0.434,-0.033C0.397,-0.006 0.351,0.007 0.298,0.007C0.249,0.007 0.206,-0.004 0.168,-0.027C0.13,-0.05 0.1,-0.082 0.079,-0.125C0.057,-0.167 0.046,-0.217 0.046,-0.274C0.046,-0.331 0.057,-0.381 0.079,-0.424C0.1,-0.467 0.13,-0.499 0.168,-0.522C0.206,-0.545 0.249,-0.556 0.298,-0.556ZM0.324,-0.475C0.268,-0.475 0.223,-0.457 0.19,-0.422C0.156,-0.386 0.139,-0.337 0.139,-0.274C0.139,-0.211 0.156,-0.162 0.19,-0.127C0.223,-0.091 0.268,-0.073 0.324,-0.073C0.36,-0.073 0.392,-0.081 0.421,-0.098C0.449,-0.115 0.471,-0.138 0.487,-0.169C0.503,-0.199 0.511,-0.234 0.511,-0.274C0.511,-0.314 0.503,-0.349 0.487,-0.38C0.471,-0.411 0.449,-0.434 0.421,-0.451C0.392,-0.467 0.36,-0.475 0.324,-0.475Z" style="fill:rgb(119,147,0);fill-rule:nonzero;"/>
            </g>
            <g transform="matrix(75,0,0,75,705.062,295.169)">
                <rect x="0.073" y="-0.74" width="0.091" height="0.74" style="fill:rgb(119,147,0);fill-rule:nonzero;"/>
            </g>
            <g transform="matrix(75,0,0,75,722.837,295.169)">
                <path d="M0.057,-0.71C0.057,-0.727 0.063,-0.74 0.074,-0.751C0.085,-0.761 0.1,-0.766 0.119,-0.766C0.138,-0.766 0.153,-0.761 0.164,-0.751C0.175,-0.74 0.181,-0.727 0.181,-0.71C0.181,-0.693 0.175,-0.68 0.164,-0.67C0.153,-0.659 0.138,-0.654 0.119,-0.654C0.1,-0.654 0.085,-0.659 0.074,-0.67C0.063,-0.68 0.057,-0.693 0.057,-0.71ZM0.164,-0.549L0.164,0L0.073,0L0.073,-0.549L0.164,-0.549Z" style="fill:rgb(119,147,0);fill-rule:nonzero;"/>
            </g>
            <g transform="matrix(75,0,0,75,740.612,295.169)">
                <path d="M0.316,-0.556C0.386,-0.556 0.444,-0.537 0.49,-0.5C0.536,-0.463 0.564,-0.413 0.575,-0.35L0.479,-0.35C0.472,-0.389 0.454,-0.42 0.425,-0.443C0.395,-0.465 0.358,-0.476 0.314,-0.476C0.282,-0.476 0.253,-0.469 0.227,-0.454C0.2,-0.439 0.179,-0.417 0.163,-0.387C0.147,-0.356 0.139,-0.319 0.139,-0.274C0.139,-0.229 0.147,-0.192 0.163,-0.162C0.179,-0.131 0.2,-0.109 0.227,-0.094C0.253,-0.079 0.282,-0.072 0.314,-0.072C0.358,-0.072 0.395,-0.083 0.425,-0.106C0.454,-0.129 0.472,-0.16 0.479,-0.199L0.575,-0.199C0.564,-0.136 0.536,-0.086 0.49,-0.049C0.444,-0.012 0.386,0.007 0.316,0.007C0.263,0.007 0.217,-0.004 0.176,-0.027C0.135,-0.05 0.103,-0.082 0.081,-0.125C0.057,-0.167 0.046,-0.217 0.046,-0.274C0.046,-0.331 0.057,-0.381 0.081,-0.424C0.103,-0.467 0.135,-0.499 0.176,-0.522C0.217,-0.545 0.263,-0.556 0.316,-0.556Z" style="fill:rgb(119,147,0);fill-rule:nonzero;"/>
            </g>
            <g transform="matrix(75,0,0,75,787.187,295.169)">
                <path d="M0.362,-0.558C0.426,-0.558 0.478,-0.538 0.517,-0.497C0.556,-0.456 0.576,-0.396 0.576,-0.319L0.576,0L0.485,0L0.485,-0.311C0.485,-0.366 0.471,-0.408 0.443,-0.437C0.415,-0.466 0.377,-0.481 0.329,-0.481C0.279,-0.481 0.239,-0.465 0.209,-0.433C0.179,-0.4 0.164,-0.353 0.164,-0.291L0.164,0L0.073,0L0.073,-0.74L0.164,-0.74L0.164,-0.419C0.178,-0.464 0.203,-0.498 0.239,-0.522C0.274,-0.546 0.315,-0.558 0.362,-0.558Z" style="fill:rgb(119,147,0);fill-rule:nonzero;"/>
            </g>
            <g transform="matrix(75,0,0,75,516.362,377.669)">
                <path d="M0.578,-0.305C0.578,-0.286 0.577,-0.269 0.574,-0.255L0.135,-0.255C0.137,-0.192 0.155,-0.145 0.189,-0.114C0.222,-0.083 0.263,-0.067 0.312,-0.067C0.356,-0.067 0.393,-0.078 0.423,-0.101C0.452,-0.123 0.47,-0.153 0.477,-0.19L0.574,-0.19C0.567,-0.152 0.553,-0.118 0.53,-0.088C0.506,-0.058 0.477,-0.035 0.44,-0.018C0.403,-0.001 0.362,0.007 0.316,0.007C0.263,0.007 0.217,-0.004 0.176,-0.027C0.135,-0.05 0.103,-0.082 0.081,-0.125C0.057,-0.167 0.046,-0.217 0.046,-0.274C0.046,-0.331 0.057,-0.381 0.081,-0.424C0.103,-0.467 0.135,-0.499 0.176,-0.522C0.217,-0.545 0.263,-0.556 0.316,-0.556C0.369,-0.556 0.416,-0.545 0.456,-0.522C0.495,-0.499 0.526,-0.469 0.547,-0.431C0.568,-0.393 0.578,-0.351 0.578,-0.305ZM0.486,-0.299C0.488,-0.34 0.481,-0.374 0.466,-0.401C0.451,-0.428 0.43,-0.449 0.403,-0.462C0.376,-0.475 0.347,-0.482 0.316,-0.482C0.266,-0.482 0.224,-0.466 0.19,-0.436C0.156,-0.405 0.138,-0.359 0.135,-0.299L0.486,-0.299Z" style="fill:rgb(119,147,0);fill-rule:nonzero;"/>
            </g>
            <g transform="matrix(75,0,0,75,563.162,377.669)">
                <path d="M0.057,-0.71C0.057,-0.727 0.063,-0.74 0.074,-0.751C0.085,-0.761 0.1,-0.766 0.119,-0.766C0.138,-0.766 0.153,-0.761 0.164,-0.751C0.175,-0.74 0.181,-0.727 0.181,-0.71C0.181,-0.693 0.175,-0.68 0.164,-0.67C0.153,-0.659 0.138,-0.654 0.119,-0.654C0.1,-0.654 0.085,-0.659 0.074,-0.67C0.063,-0.68 0.057,-0.693 0.057,-0.71ZM0.164,-0.549L0.164,0L0.073,0L0.073,-0.549L0.164,-0.549Z" style="fill:rgb(119,147,0);fill-rule:nonzero;"/>
            </g>
            <g transform="matrix(75,0,0,75,580.937,377.669)">
                <path d="M0.362,-0.558C0.426,-0.558 0.478,-0.538 0.517,-0.497C0.556,-0.456 0.576,-0.396 0.576,-0.319L0.576,0L0.485,0L0.485,-0.311C0.485,-0.366 0.471,-0.408 0.443,-0.437C0.415,-0.466 0.377,-0.481 0.329,-0.481C0.279,-0.481 0.239,-0.465 0.209,-0.433C0.179,-0.4 0.164,-0.353 0.164,-0.291L0.164,0L0.073,0L0.073,-0.549L0.164,-0.549L0.164,-0.419C0.178,-0.464 0.203,-0.498 0.239,-0.522C0.274,-0.546 0.315,-0.558 0.362,-0.558Z" style="fill:rgb(119,147,0);fill-rule:nonzero;"/>
            </g>
            <g transform="matrix(75,0,0,75,629.162,377.669)">
                <path d="M0.578,-0.305C0.578,-0.286 0.577,-0.269 0.574,-0.255L0.135,-0.255C0.137,-0.192 0.155,-0.145 0.189,-0.114C0.222,-0.083 0.263,-0.067 0.312,-0.067C0.356,-0.067 0.393,-0.078 0.423,-0.101C0.452,-0.123 0.47,-0.153 0.477,-0.19L0.574,-0.19C0.567,-0.152 0.553,-0.118 0.53,-0.088C0.506,-0.058 0.477,-0.035 0.44,-0.018C0.403,-0.001 0.362,0.007 0.316,0.007C0.263,0.007 0.217,-0.004 0.176,-0.027C0.135,-0.05 0.103,-0.082 0.081,-0.125C0.057,-0.167 0.046,-0.217 0.046,-0.274C0.046,-0.331 0.057,-0.381 0.081,-0.424C0.103,-0.467 0.135,-0.499 0.176,-0.522C0.217,-0.545 0.263,-0.556 0.316,-0.556C0.369,-0.556 0.416,-0.545 0.456,-0.522C0.495,-0.499 0.526,-0.469 0.547,-0.431C0.568,-0.393 0.578,-0.351 0.578,-0.305ZM0.486,-0.299C0.488,-0.34 0.481,-0.374 0.466,-0.401C0.451,-0.428 0.43,-0.449 0.403,-0.462C0.376,-0.475 0.347,-0.482 0.316,-0.482C0.266,-0.482 0.224,-0.466 0.19,-0.436C0.156,-0.405 0.138,-0.359 0.135,-0.299L0.486,-0.299Z" style="fill:rgb(119,147,0);fill-rule:nonzero;"/>
            </g>
            <g transform="matrix(75,0,0,75,694.487,377.669)">
                <path d="M0.362,-0.558C0.426,-0.558 0.478,-0.538 0.517,-0.497C0.556,-0.456 0.576,-0.396 0.576,-0.319L0.576,0L0.485,0L0.485,-0.311C0.485,-0.366 0.471,-0.408 0.443,-0.437C0.415,-0.466 0.377,-0.481 0.329,-0.481C0.279,-0.481 0.239,-0.465 0.209,-0.433C0.179,-0.4 0.164,-0.353 0.164,-0.291L0.164,0L0.073,0L0.073,-0.549L0.164,-0.549L0.164,-0.419C0.178,-0.464 0.203,-0.498 0.239,-0.522C0.274,-0.546 0.315,-0.558 0.362,-0.558Z" style="fill:rgb(119,147,0);fill-rule:nonzero;"/>
            </g>
            <g transform="matrix(75,0,0,75,742.712,377.669)">
                <path d="M0.578,-0.305C0.578,-0.286 0.577,-0.269 0.574,-0.255L0.135,-0.255C0.137,-0.192 0.155,-0.145 0.189,-0.114C0.222,-0.083 0.263,-0.067 0.312,-0.067C0.356,-0.067 0.393,-0.078 0.423,-0.101C0.452,-0.123 0.47,-0.153 0.477,-0.19L0.574,-0.19C0.567,-0.152 0.553,-0.118 0.53,-0.088C0.506,-0.058 0.477,-0.035 0.44,-0.018C0.403,-0.001 0.362,0.007 0.316,0.007C0.263,0.007 0.217,-0.004 0.176,-0.027C0.135,-0.05 0.103,-0.082 0.081,-0.125C0.057,-0.167 0.046,-0.217 0.046,-0.274C0.046,-0.331 0.057,-0.381 0.081,-0.424C0.103,-0.467 0.135,-0.499 0.176,-0.522C0.217,-0.545 0.263,-0.556 0.316,-0.556C0.369,-0.556 0.416,-0.545 0.456,-0.522C0.495,-0.499 0.526,-0.469 0.547,-0.431C0.568,-0.393 0.578,-0.351 0.578,-0.305ZM0.486,-0.299C0.488,-0.34 0.481,-0.374 0.466,-0.401C0.451,-0.428 0.43,-0.449 0.403,-0.462C0.376,-0.475 0.347,-0.482 0.316,-0.482C0.266,-0.482 0.224,-0.466 0.19,-0.436C0.156,-0.405 0.138,-0.359 0.135,-0.299L0.486,-0.299Z" style="fill:rgb(119,147,0);fill-rule:nonzero;"/>
            </g>
            <g transform="matrix(75,0,0,75,789.512,377.669)">
                <path d="M0.561,-0.549L0.561,0L0.47,0L0.47,-0.129C0.456,-0.084 0.431,-0.05 0.396,-0.027C0.36,-0.003 0.318,0.009 0.271,0.009C0.208,0.009 0.156,-0.011 0.117,-0.053C0.078,-0.094 0.058,-0.152 0.058,-0.229L0.058,-0.549L0.149,-0.549L0.149,-0.238C0.149,-0.183 0.163,-0.141 0.191,-0.112C0.219,-0.082 0.257,-0.067 0.305,-0.067C0.355,-0.067 0.395,-0.083 0.425,-0.116C0.455,-0.148 0.47,-0.195 0.47,-0.257L0.47,-0.549L0.561,-0.549Z" style="fill:rgb(119,147,0);fill-rule:nonzero;"/>
            </g>
            <g transform="matrix(75,0,0,75,837.062,377.669)">
                <path d="M0.578,-0.305C0.578,-0.286 0.577,-0.269 0.574,-0.255L0.135,-0.255C0.137,-0.192 0.155,-0.145 0.189,-0.114C0.222,-0.083 0.263,-0.067 0.312,-0.067C0.356,-0.067 0.393,-0.078 0.423,-0.101C0.452,-0.123 0.47,-0.153 0.477,-0.19L0.574,-0.19C0.567,-0.152 0.553,-0.118 0.53,-0.088C0.506,-0.058 0.477,-0.035 0.44,-0.018C0.403,-0.001 0.362,0.007 0.316,0.007C0.263,0.007 0.217,-0.004 0.176,-0.027C0.135,-0.05 0.103,-0.082 0.081,-0.125C0.057,-0.167 0.046,-0.217 0.046,-0.274C0.046,-0.331 0.057,-0.381 0.081,-0.424C0.103,-0.467 0.135,-0.499 0.176,-0.522C0.217,-0.545 0.263,-0.556 0.316,-0.556C0.369,-0.556 0.416,-0.545 0.456,-0.522C0.495,-0.499 0.526,-0.469 0.547,-0.431C0.568,-0.393 0.578,-0.351 0.578,-0.305ZM0.486,-0.299C0.488,-0.34 0.481,-0.374 0.466,-0.401C0.451,-0.428 0.43,-0.449 0.403,-0.462C0.376,-0.475 0.347,-0.482 0.316,-0.482C0.266,-0.482 0.224,-0.466 0.19,-0.436C0.156,-0.405 0.138,-0.359 0.135,-0.299L0.486,-0.299Z" style="fill:rgb(119,147,0);fill-rule:nonzero;"/>
            </g>
            <g transform="matrix(75,0,0,75,479.612,460.169)">
                <path d="M0.578,-0.305C0.578,-0.286 0.577,-0.269 0.574,-0.255L0.135,-0.255C0.137,-0.192 0.155,-0.145 0.189,-0.114C0.222,-0.083 0.263,-0.067 0.312,-0.067C0.356,-0.067 0.393,-0.078 0.423,-0.101C0.452,-0.123 0.47,-0.153 0.477,-0.19L0.574,-0.19C0.567,-0.152 0.553,-0.118 0.53,-0.088C0.506,-0.058 0.477,-0.035 0.44,-0.018C0.403,-0.001 0.362,0.007 0.316,0.007C0.263,0.007 0.217,-0.004 0.176,-0.027C0.135,-0.05 0.103,-0.082 0.081,-0.125C0.057,-0.167 0.046,-0.217 0.046,-0.274C0.046,-0.331 0.057,-0.381 0.081,-0.424C0.103,-0.467 0.135,-0.499 0.176,-0.522C0.217,-0.545 0.263,-0.556 0.316,-0.556C0.369,-0.556 0.416,-0.545 0.456,-0.522C0.495,-0.499 0.526,-0.469 0.547,-0.431C0.568,-0.393 0.578,-0.351 0.578,-0.305ZM0.486,-0.299C0.488,-0.34 0.481,-0.374 0.466,-0.401C0.451,-0.428 0.43,-0.449 0.403,-0.462C0.376,-0.475 0.347,-0.482 0.316,-0.482C0.266,-0.482 0.224,-0.466 0.19,-0.436C0.156,-0.405 0.138,-0.359 0.135,-0.299L0.486,-0.299Z" style="fill:rgb(119,147,0);fill-rule:nonzero;"/>
            </g>
            <g transform="matrix(75,0,0,75,526.412,460.169)">
                <path d="M0.057,-0.71C0.057,-0.727 0.063,-0.74 0.074,-0.751C0.085,-0.761 0.1,-0.766 0.119,-0.766C0.138,-0.766 0.153,-0.761 0.164,-0.751C0.175,-0.74 0.181,-0.727 0.181,-0.71C0.181,-0.693 0.175,-0.68 0.164,-0.67C0.153,-0.659 0.138,-0.654 0.119,-0.654C0.1,-0.654 0.085,-0.659 0.074,-0.67C0.063,-0.68 0.057,-0.693 0.057,-0.71ZM0.164,-0.549L0.164,0L0.073,0L0.073,-0.549L0.164,-0.549Z" style="fill:rgb(119,147,0);fill-rule:nonzero;"/>
            </g>
            <g transform="matrix(75,0,0,75,544.187,460.169)">
                <path d="M0.362,-0.558C0.426,-0.558 0.478,-0.538 0.517,-0.497C0.556,-0.456 0.576,-0.396 0.576,-0.319L0.576,0L0.485,0L0.485,-0.311C0.485,-0.366 0.471,-0.408 0.443,-0.437C0.415,-0.466 0.377,-0.481 0.329,-0.481C0.279,-0.481 0.239,-0.465 0.209,-0.433C0.179,-0.4 0.164,-0.353 0.164,-0.291L0.164,0L0.073,0L0.073,-0.549L0.164,-0.549L0.164,-0.419C0.178,-0.464 0.203,-0.498 0.239,-0.522C0.274,-0.546 0.315,-0.558 0.362,-0.558Z" style="fill:rgb(119,147,0);fill-rule:nonzero;"/>
            </g>
            <g transform="matrix(75,0,0,75,592.412,460.169)">
                <path d="M0.245,-0.556C0.307,-0.556 0.357,-0.54 0.395,-0.508C0.432,-0.475 0.455,-0.432 0.463,-0.377L0.376,-0.377C0.372,-0.41 0.359,-0.436 0.336,-0.458C0.313,-0.478 0.282,-0.489 0.243,-0.489C0.21,-0.489 0.185,-0.481 0.167,-0.466C0.148,-0.45 0.139,-0.429 0.139,-0.402C0.139,-0.382 0.145,-0.366 0.158,-0.354C0.17,-0.341 0.185,-0.332 0.204,-0.326C0.222,-0.319 0.247,-0.312 0.279,-0.305C0.32,-0.296 0.353,-0.286 0.378,-0.277C0.403,-0.267 0.424,-0.251 0.442,-0.23C0.459,-0.209 0.468,-0.18 0.468,-0.144C0.468,-0.099 0.451,-0.063 0.418,-0.035C0.384,-0.007 0.339,0.007 0.283,0.007C0.218,0.007 0.164,-0.009 0.123,-0.04C0.082,-0.071 0.057,-0.115 0.05,-0.171L0.138,-0.171C0.141,-0.138 0.156,-0.111 0.182,-0.09C0.207,-0.069 0.241,-0.059 0.283,-0.059C0.314,-0.059 0.339,-0.067 0.357,-0.083C0.374,-0.099 0.383,-0.12 0.383,-0.146C0.383,-0.167 0.377,-0.184 0.364,-0.197C0.351,-0.21 0.336,-0.219 0.317,-0.226C0.298,-0.233 0.273,-0.24 0.24,-0.247C0.199,-0.256 0.167,-0.266 0.143,-0.275C0.118,-0.284 0.097,-0.299 0.081,-0.32C0.064,-0.34 0.055,-0.367 0.055,-0.402C0.055,-0.448 0.072,-0.485 0.106,-0.514C0.14,-0.542 0.186,-0.556 0.245,-0.556Z" style="fill:rgb(119,147,0);fill-rule:nonzero;"/>
            </g>
            <g transform="matrix(75,0,0,75,631.187,460.169)">
                <path d="M0.335,-0.08L0.335,0L0.267,0C0.211,0 0.169,-0.013 0.142,-0.04C0.114,-0.067 0.1,-0.111 0.1,-0.174L0.1,-0.47L0.018,-0.47L0.018,-0.549L0.1,-0.549L0.1,-0.686L0.192,-0.686L0.192,-0.549L0.334,-0.549L0.334,-0.47L0.192,-0.47L0.192,-0.172C0.192,-0.137 0.199,-0.113 0.212,-0.1C0.225,-0.087 0.247,-0.08 0.279,-0.08L0.335,-0.08Z" style="fill:rgb(119,147,0);fill-rule:nonzero;"/>
            </g>
            <g transform="matrix(75,0,0,75,659.162,460.169)">
                <path d="M0.561,-0.549L0.561,0L0.47,0L0.47,-0.129C0.456,-0.084 0.431,-0.05 0.396,-0.027C0.36,-0.003 0.318,0.009 0.271,0.009C0.208,0.009 0.156,-0.011 0.117,-0.053C0.078,-0.094 0.058,-0.152 0.058,-0.229L0.058,-0.549L0.149,-0.549L0.149,-0.238C0.149,-0.183 0.163,-0.141 0.191,-0.112C0.219,-0.082 0.257,-0.067 0.305,-0.067C0.355,-0.067 0.395,-0.083 0.425,-0.116C0.455,-0.148 0.47,-0.195 0.47,-0.257L0.47,-0.549L0.561,-0.549ZM0.177,-0.674C0.177,-0.688 0.182,-0.7 0.192,-0.71C0.201,-0.719 0.213,-0.724 0.227,-0.724C0.241,-0.724 0.253,-0.719 0.263,-0.71C0.272,-0.7 0.277,-0.688 0.277,-0.674C0.277,-0.661 0.272,-0.649 0.263,-0.64C0.253,-0.63 0.241,-0.625 0.227,-0.625C0.213,-0.625 0.201,-0.63 0.192,-0.64C0.182,-0.649 0.177,-0.661 0.177,-0.674ZM0.343,-0.674C0.343,-0.688 0.348,-0.7 0.358,-0.71C0.367,-0.719 0.379,-0.724 0.393,-0.724C0.407,-0.724 0.419,-0.719 0.429,-0.71C0.438,-0.7 0.443,-0.688 0.443,-0.674C0.443,-0.661 0.438,-0.649 0.429,-0.64C0.419,-0.63 0.407,-0.625 0.393,-0.625C0.379,-0.625 0.367,-0.63 0.358,-0.64C0.348,-0.649 0.343,-0.661 0.343,-0.674Z" style="fill:rgb(119,147,0);fill-rule:nonzero;"/>
            </g>
            <g transform="matrix(75,0,0,75,706.712,460.169)">
                <path d="M0.362,-0.558C0.426,-0.558 0.478,-0.538 0.517,-0.497C0.556,-0.456 0.576,-0.396 0.576,-0.319L0.576,0L0.485,0L0.485,-0.311C0.485,-0.366 0.471,-0.408 0.443,-0.437C0.415,-0.466 0.377,-0.481 0.329,-0.481C0.279,-0.481 0.239,-0.465 0.209,-0.433C0.179,-0.4 0.164,-0.353 0.164,-0.291L0.164,0L0.073,0L0.073,-0.549L0.164,-0.549L0.164,-0.419C0.178,-0.464 0.203,-0.498 0.239,-0.522C0.274,-0.546 0.315,-0.558 0.362,-0.558Z" style="fill:rgb(119,147,0);fill-rule:nonzero;"/>
            </g>
            <g transform="matrix(75,0,0,75,754.937,460.169)">
                <path d="M0.298,-0.556C0.351,-0.556 0.397,-0.543 0.434,-0.516C0.47,-0.489 0.496,-0.454 0.511,-0.409L0.511,-0.74L0.602,-0.74L0.602,0L0.511,0L0.511,-0.14C0.496,-0.095 0.47,-0.06 0.434,-0.033C0.397,-0.006 0.351,0.007 0.298,0.007C0.249,0.007 0.206,-0.004 0.168,-0.027C0.13,-0.05 0.1,-0.082 0.079,-0.125C0.057,-0.167 0.046,-0.217 0.046,-0.274C0.046,-0.331 0.057,-0.381 0.079,-0.424C0.1,-0.467 0.13,-0.499 0.168,-0.522C0.206,-0.545 0.249,-0.556 0.298,-0.556ZM0.324,-0.475C0.268,-0.475 0.223,-0.457 0.19,-0.422C0.156,-0.386 0.139,-0.337 0.139,-0.274C0.139,-0.211 0.156,-0.162 0.19,-0.127C0.223,-0.091 0.268,-0.073 0.324,-0.073C0.36,-0.073 0.392,-0.081 0.421,-0.098C0.449,-0.115 0.471,-0.138 0.487,-0.169C0.503,-0.199 0.511,-0.234 0.511,-0.274C0.511,-0.314 0.503,-0.349 0.487,-0.38C0.471,-0.411 0.449,-0.434 0.421,-0.451C0.392,-0.467 0.36,-0.475 0.324,-0.475Z" style="fill:rgb(119,147,0);fill-rule:nonzero;"/>
            </g>
            <g transform="matrix(75,0,0,75,805.487,460.169)">
                <path d="M0.057,-0.71C0.057,-0.727 0.063,-0.74 0.074,-0.751C0.085,-0.761 0.1,-0.766 0.119,-0.766C0.138,-0.766 0.153,-0.761 0.164,-0.751C0.175,-0.74 0.181,-0.727 0.181,-0.71C0.181,-0.693 0.175,-0.68 0.164,-0.67C0.153,-0.659 0.138,-0.654 0.119,-0.654C0.1,-0.654 0.085,-0.659 0.074,-0.67C0.063,-0.68 0.057,-0.693 0.057,-0.71ZM0.164,-0.549L0.164,0L0.073,0L0.073,-0.549L0.164,-0.549Z" style="fill:rgb(119,147,0);fill-rule:nonzero;"/>
            </g>
            <g transform="matrix(75,0,0,75,823.262,460.169)">
                <path d="M0.298,-0.556C0.351,-0.556 0.397,-0.543 0.434,-0.516C0.47,-0.489 0.496,-0.454 0.511,-0.409L0.511,-0.549L0.602,-0.549L0.602,0.009C0.602,0.06 0.591,0.105 0.57,0.144C0.549,0.183 0.519,0.214 0.48,0.236C0.441,0.258 0.396,0.269 0.345,0.269C0.271,0.269 0.211,0.251 0.164,0.216C0.117,0.18 0.088,0.132 0.075,0.071L0.165,0.071C0.176,0.108 0.196,0.136 0.226,0.158C0.255,0.179 0.293,0.189 0.34,0.189C0.389,0.189 0.43,0.173 0.463,0.142C0.495,0.11 0.511,0.066 0.511,0.009L0.511,-0.14C0.496,-0.095 0.47,-0.06 0.434,-0.033C0.397,-0.006 0.351,0.007 0.298,0.007C0.249,0.007 0.206,-0.004 0.168,-0.027C0.13,-0.05 0.1,-0.082 0.079,-0.125C0.057,-0.167 0.046,-0.217 0.046,-0.274C0.046,-0.331 0.057,-0.381 0.079,-0.424C0.1,-0.467 0.13,-0.499 0.168,-0.522C0.206,-0.545 0.249,-0.556 0.298,-0.556ZM0.324,-0.475C0.268,-0.475 0.223,-0.457 0.19,-0.422C0.156,-0.386 0.139,-0.337 0.139,-0.274C0.139,-0.211 0.156,-0.162 0.19,-0.127C0.223,-0.091 0.268,-0.073 0.324,-0.073C0.36,-0.073 0.392,-0.081 0.421,-0.098C0.449,-0.115 0.471,-0.138 0.487,-0.169C0.503,-0.199 0.511,-0.234 0.511,-0.274C0.511,-0.314 0.503,-0.349 0.487,-0.38C0.471,-0.411 0.449,-0.434 0.421,-0.451C0.392,-0.467 0.36,-0.475 0.324,-0.475Z" style="fill:rgb(119,147,0);fill-rule:nonzero;"/>
            </g>
            <g transform="matrix(75,0,0,75,873.812,460.169)">
                <path d="M0.578,-0.305C0.578,-0.286 0.577,-0.269 0.574,-0.255L0.135,-0.255C0.137,-0.192 0.155,-0.145 0.189,-0.114C0.222,-0.083 0.263,-0.067 0.312,-0.067C0.356,-0.067 0.393,-0.078 0.423,-0.101C0.452,-0.123 0.47,-0.153 0.477,-0.19L0.574,-0.19C0.567,-0.152 0.553,-0.118 0.53,-0.088C0.506,-0.058 0.477,-0.035 0.44,-0.018C0.403,-0.001 0.362,0.007 0.316,0.007C0.263,0.007 0.217,-0.004 0.176,-0.027C0.135,-0.05 0.103,-0.082 0.081,-0.125C0.057,-0.167 0.046,-0.217 0.046,-0.274C0.046,-0.331 0.057,-0.381 0.081,-0.424C0.103,-0.467 0.135,-0.499 0.176,-0.522C0.217,-0.545 0.263,-0.556 0.316,-0.556C0.369,-0.556 0.416,-0.545 0.456,-0.522C0.495,-0.499 0.526,-0.469 0.547,-0.431C0.568,-0.393 0.578,-0.351 0.578,-0.305ZM0.486,-0.299C0.488,-0.34 0.481,-0.374 0.466,-0.401C0.451,-0.428 0.43,-0.449 0.403,-0.462C0.376,-0.475 0.347,-0.482 0.316,-0.482C0.266,-0.482 0.224,-0.466 0.19,-0.436C0.156,-0.405 0.138,-0.359 0.135,-0.299L0.486,-0.299Z" style="fill:rgb(119,147,0);fill-rule:nonzero;"/>
            </g>
            <g transform="matrix(75,0,0,75,599.424,542.669)">
                <path d="M0.472,-0.705L0.472,-0.631L0.164,-0.631L0.164,-0.387L0.425,-0.387L0.425,-0.316L0.164,-0.316L0.164,0L0.073,0L0.073,-0.705L0.472,-0.705Z" style="fill:rgb(119,147,0);fill-rule:nonzero;"/>
            </g>
            <g transform="matrix(75,0,0,75,637.449,542.669)">
                <path d="M0.322,-0.556C0.375,-0.556 0.422,-0.545 0.464,-0.522C0.505,-0.499 0.538,-0.467 0.562,-0.424C0.585,-0.381 0.597,-0.331 0.597,-0.274C0.597,-0.217 0.585,-0.167 0.562,-0.125C0.538,-0.082 0.505,-0.05 0.464,-0.027C0.422,-0.004 0.375,0.007 0.322,0.007C0.269,0.007 0.222,-0.004 0.181,-0.027C0.139,-0.05 0.106,-0.082 0.082,-0.125C0.058,-0.167 0.046,-0.217 0.046,-0.274C0.046,-0.331 0.058,-0.381 0.082,-0.424C0.106,-0.467 0.139,-0.499 0.181,-0.522C0.222,-0.545 0.269,-0.556 0.322,-0.556ZM0.322,-0.476C0.289,-0.476 0.259,-0.469 0.232,-0.454C0.204,-0.439 0.182,-0.417 0.165,-0.387C0.148,-0.356 0.139,-0.319 0.139,-0.274C0.139,-0.23 0.148,-0.193 0.165,-0.163C0.182,-0.132 0.204,-0.11 0.232,-0.095C0.259,-0.08 0.289,-0.073 0.322,-0.073C0.355,-0.073 0.385,-0.08 0.413,-0.095C0.44,-0.11 0.463,-0.132 0.48,-0.163C0.497,-0.193 0.505,-0.23 0.505,-0.274C0.505,-0.319 0.497,-0.356 0.48,-0.387C0.463,-0.417 0.44,-0.439 0.413,-0.454C0.385,-0.469 0.355,-0.476 0.322,-0.476Z" style="fill:rgb(119,147,0);fill-rule:nonzero;"/>
            </g>
            <g transform="matrix(75,0,0,75,685.674,542.669)">
                <rect x="0.073" y="-0.74" width="0.091" height="0.74" style="fill:rgb(119,147,0);fill-rule:nonzero;"/>
            </g>
            <g transform="matrix(75,0,0,75,703.449,542.669)">
                <path d="M0.298,-0.556C0.351,-0.556 0.397,-0.543 0.434,-0.516C0.47,-0.489 0.496,-0.454 0.511,-0.409L0.511,-0.549L0.602,-0.549L0.602,0.009C0.602,0.06 0.591,0.105 0.57,0.144C0.549,0.183 0.519,0.214 0.48,0.236C0.441,0.258 0.396,0.269 0.345,0.269C0.271,0.269 0.211,0.251 0.164,0.216C0.117,0.18 0.088,0.132 0.075,0.071L0.165,0.071C0.176,0.108 0.196,0.136 0.226,0.158C0.255,0.179 0.293,0.189 0.34,0.189C0.389,0.189 0.43,0.173 0.463,0.142C0.495,0.11 0.511,0.066 0.511,0.009L0.511,-0.14C0.496,-0.095 0.47,-0.06 0.434,-0.033C0.397,-0.006 0.351,0.007 0.298,0.007C0.249,0.007 0.206,-0.004 0.168,-0.027C0.13,-0.05 0.1,-0.082 0.079,-0.125C0.057,-0.167 0.046,-0.217 0.046,-0.274C0.046,-0.331 0.057,-0.381 0.079,-0.424C0.1,-0.467 0.13,-0.499 0.168,-0.522C0.206,-0.545 0.249,-0.556 0.298,-0.556ZM0.324,-0.475C0.268,-0.475 0.223,-0.457 0.19,-0.422C0.156,-0.386 0.139,-0.337 0.139,-0.274C0.139,-0.211 0.156,-0.162 0.19,-0.127C0.223,-0.091 0.268,-0.073 0.324,-0.073C0.36,-0.073 0.392,-0.081 0.421,-0.098C0.449,-0.115 0.471,-0.138 0.487,-0.169C0.503,-0.199 0.511,-0.234 0.511,-0.274C0.511,-0.314 0.503,-0.349 0.487,-0.38C0.471,-0.411 0.449,-0.434 0.421,-0.451C0.392,-0.467 0.36,-0.475 0.324,-0.475Z" style="fill:rgb(119,147,0);fill-rule:nonzero;"/>
            </g>
            <g transform="matrix(75,0,0,75,753.999,542.669)">
                <path d="M0.578,-0.305C0.578,-0.286 0.577,-0.269 0.574,-0.255L0.135,-0.255C0.137,-0.192 0.155,-0.145 0.189,-0.114C0.222,-0.083 0.263,-0.067 0.312,-0.067C0.356,-0.067 0.393,-0.078 0.423,-0.101C0.452,-0.123 0.47,-0.153 0.477,-0.19L0.574,-0.19C0.567,-0.152 0.553,-0.118 0.53,-0.088C0.506,-0.058 0.477,-0.035 0.44,-0.018C0.403,-0.001 0.362,0.007 0.316,0.007C0.263,0.007 0.217,-0.004 0.176,-0.027C0.135,-0.05 0.103,-0.082 0.081,-0.125C0.057,-0.167 0.046,-0.217 0.046,-0.274C0.046,-0.331 0.057,-0.381 0.081,-0.424C0.103,-0.467 0.135,-0.499 0.176,-0.522C0.217,-0.545 0.263,-0.556 0.316,-0.556C0.369,-0.556 0.416,-0.545 0.456,-0.522C0.495,-0.499 0.526,-0.469 0.547,-0.431C0.568,-0.393 0.578,-0.351 0.578,-0.305ZM0.486,-0.299C0.488,-0.34 0.481,-0.374 0.466,-0.401C0.451,-0.428 0.43,-0.449 0.403,-0.462C0.376,-0.475 0.347,-0.482 0.316,-0.482C0.266,-0.482 0.224,-0.466 0.19,-0.436C0.156,-0.405 0.138,-0.359 0.135,-0.299L0.486,-0.299Z" style="fill:rgb(119,147,0);fill-rule:nonzero;"/>
            </g>
        </g>
    </g>
    <g transform="matrix(1.12619,0,0,1.12619,-49.823,-23.8759)">
        <g transform="matrix(0.997572,0,0,0.984603,-704.62,101.482)">
            <circle cx="1378.67" cy="391.775" r="301.246" style="fill:rgb(135,115,204);"/>
        </g>
        <g transform="matrix(0.887952,0,0,0.887952,45.7009,49.6523)">
            <g transform="matrix(66.6667,0,0,66.6667,490.895,339.836)">
                <path d="M0.472,-0.705L0.472,-0.631L0.164,-0.631L0.164,-0.387L0.425,-0.387L0.425,-0.316L0.164,-0.316L0.164,0L0.073,0L0.073,-0.705L0.472,-0.705Z" style="fill:rgb(193,225,252);fill-rule:nonzero;"/>
            </g>
            <g transform="matrix(66.6667,0,0,66.6667,524.695,339.836)">
                <path d="M0.322,-0.556C0.375,-0.556 0.422,-0.545 0.464,-0.522C0.505,-0.499 0.538,-0.467 0.562,-0.424C0.585,-0.381 0.597,-0.331 0.597,-0.274C0.597,-0.217 0.585,-0.167 0.562,-0.125C0.538,-0.082 0.505,-0.05 0.464,-0.027C0.422,-0.004 0.375,0.007 0.322,0.007C0.269,0.007 0.222,-0.004 0.181,-0.027C0.139,-0.05 0.106,-0.082 0.082,-0.125C0.058,-0.167 0.046,-0.217 0.046,-0.274C0.046,-0.331 0.058,-0.381 0.082,-0.424C0.106,-0.467 0.139,-0.499 0.181,-0.522C0.222,-0.545 0.269,-0.556 0.322,-0.556ZM0.322,-0.476C0.289,-0.476 0.259,-0.469 0.232,-0.454C0.204,-0.439 0.182,-0.417 0.165,-0.387C0.148,-0.356 0.139,-0.319 0.139,-0.274C0.139,-0.23 0.148,-0.193 0.165,-0.163C0.182,-0.132 0.204,-0.11 0.232,-0.095C0.259,-0.08 0.289,-0.073 0.322,-0.073C0.355,-0.073 0.385,-0.08 0.413,-0.095C0.44,-0.11 0.463,-0.132 0.48,-0.163C0.497,-0.193 0.505,-0.23 0.505,-0.274C0.505,-0.319 0.497,-0.356 0.48,-0.387C0.463,-0.417 0.44,-0.439 0.413,-0.454C0.385,-0.469 0.355,-0.476 0.322,-0.476Z" style="fill:rgb(193,225,252);fill-rule:nonzero;"/>
            </g>
            <g transform="matrix(66.6667,0,0,66.6667,567.562,339.836)">
                <path d="M0.374,0L0.164,-0.247L0.164,0L0.073,0L0.073,-0.74L0.164,-0.74L0.164,-0.31L0.371,-0.549L0.482,-0.549L0.236,-0.276L0.488,0L0.374,0Z" style="fill:rgb(193,225,252);fill-rule:nonzero;"/>
            </g>
            <g transform="matrix(66.6667,0,0,66.6667,600.561,339.836)">
                <path d="M0.561,-0.549L0.561,0L0.47,0L0.47,-0.129C0.456,-0.084 0.431,-0.05 0.396,-0.027C0.36,-0.003 0.318,0.009 0.271,0.009C0.208,0.009 0.156,-0.011 0.117,-0.053C0.078,-0.094 0.058,-0.152 0.058,-0.229L0.058,-0.549L0.149,-0.549L0.149,-0.238C0.149,-0.183 0.163,-0.141 0.191,-0.112C0.219,-0.082 0.257,-0.067 0.305,-0.067C0.355,-0.067 0.395,-0.083 0.425,-0.116C0.455,-0.148 0.47,-0.195 0.47,-0.257L0.47,-0.549L0.561,-0.549Z" style="fill:rgb(193,225,252);fill-rule:nonzero;"/>
            </g>
            <g transform="matrix(66.6667,0,0,66.6667,642.828,339.836)">
                <path d="M0.245,-0.556C0.307,-0.556 0.357,-0.54 0.395,-0.508C0.432,-0.475 0.455,-0.432 0.463,-0.377L0.376,-0.377C0.372,-0.41 0.359,-0.436 0.336,-0.458C0.313,-0.478 0.282,-0.489 0.243,-0.489C0.21,-0.489 0.185,-0.481 0.167,-0.466C0.148,-0.45 0.139,-0.429 0.139,-0.402C0.139,-0.382 0.145,-0.366 0.158,-0.354C0.17,-0.341 0.185,-0.332 0.204,-0.326C0.222,-0.319 0.247,-0.312 0.279,-0.305C0.32,-0.296 0.353,-0.286 0.378,-0.277C0.403,-0.267 0.424,-0.251 0.442,-0.23C0.459,-0.209 0.468,-0.18 0.468,-0.144C0.468,-0.099 0.451,-0.063 0.418,-0.035C0.384,-0.007 0.339,0.007 0.283,0.007C0.218,0.007 0.164,-0.009 0.123,-0.04C0.082,-0.071 0.057,-0.115 0.05,-0.171L0.138,-0.171C0.141,-0.138 0.156,-0.111 0.182,-0.09C0.207,-0.069 0.241,-0.059 0.283,-0.059C0.314,-0.059 0.339,-0.067 0.357,-0.083C0.374,-0.099 0.383,-0.12 0.383,-0.146C0.383,-0.167 0.377,-0.184 0.364,-0.197C0.351,-0.21 0.336,-0.219 0.317,-0.226C0.298,-0.233 0.273,-0.24 0.24,-0.247C0.199,-0.256 0.167,-0.266 0.143,-0.275C0.118,-0.284 0.097,-0.299 0.081,-0.32C0.064,-0.34 0.055,-0.367 0.055,-0.402C0.055,-0.448 0.072,-0.485 0.106,-0.514C0.14,-0.542 0.186,-0.556 0.245,-0.556Z" style="fill:rgb(193,225,252);fill-rule:nonzero;"/>
            </g>
            <g transform="matrix(66.6667,0,0,66.6667,693.761,339.836)">
                <path d="M0.298,-0.556C0.351,-0.556 0.397,-0.543 0.434,-0.516C0.47,-0.489 0.496,-0.454 0.511,-0.409L0.511,-0.549L0.602,-0.549L0.602,0L0.511,0L0.511,-0.14C0.496,-0.095 0.47,-0.06 0.434,-0.033C0.397,-0.006 0.351,0.007 0.298,0.007C0.249,0.007 0.206,-0.004 0.168,-0.027C0.13,-0.05 0.1,-0.082 0.079,-0.125C0.057,-0.167 0.046,-0.217 0.046,-0.274C0.046,-0.331 0.057,-0.381 0.079,-0.424C0.1,-0.467 0.13,-0.499 0.168,-0.522C0.206,-0.545 0.249,-0.556 0.298,-0.556ZM0.324,-0.475C0.268,-0.475 0.223,-0.457 0.19,-0.422C0.156,-0.386 0.139,-0.337 0.139,-0.274C0.139,-0.211 0.156,-0.162 0.19,-0.127C0.223,-0.091 0.268,-0.073 0.324,-0.073C0.36,-0.073 0.392,-0.081 0.421,-0.098C0.449,-0.115 0.471,-0.138 0.487,-0.169C0.503,-0.199 0.511,-0.234 0.511,-0.274C0.511,-0.314 0.503,-0.349 0.487,-0.38C0.471,-0.411 0.449,-0.434 0.421,-0.451C0.392,-0.467 0.36,-0.475 0.324,-0.475Z" style="fill:rgb(193,225,252);fill-rule:nonzero;"/>
            </g>
            <g transform="matrix(66.6667,0,0,66.6667,738.694,339.836)">
                <path d="M0.561,-0.549L0.561,0L0.47,0L0.47,-0.129C0.456,-0.084 0.431,-0.05 0.396,-0.027C0.36,-0.003 0.318,0.009 0.271,0.009C0.208,0.009 0.156,-0.011 0.117,-0.053C0.078,-0.094 0.058,-0.152 0.058,-0.229L0.058,-0.549L0.149,-0.549L0.149,-0.238C0.149,-0.183 0.163,-0.141 0.191,-0.112C0.219,-0.082 0.257,-0.067 0.305,-0.067C0.355,-0.067 0.395,-0.083 0.425,-0.116C0.455,-0.148 0.47,-0.195 0.47,-0.257L0.47,-0.549L0.561,-0.549Z" style="fill:rgb(193,225,252);fill-rule:nonzero;"/>
            </g>
            <g transform="matrix(66.6667,0,0,66.6667,780.96,339.836)">
                <path d="M0.316,-0.679C0.267,-0.68 0.234,-0.671 0.215,-0.654C0.196,-0.637 0.186,-0.607 0.186,-0.564L0.186,-0.549L0.316,-0.549L0.316,-0.469L0.186,-0.469L0.186,0L0.095,0L0.095,-0.469L0.016,-0.469L0.016,-0.549L0.095,-0.549L0.095,-0.571C0.095,-0.702 0.169,-0.765 0.316,-0.759L0.316,-0.679Z" style="fill:rgb(193,225,252);fill-rule:nonzero;"/>
            </g>
            <g transform="matrix(66.6667,0,0,66.6667,820.227,339.836)">
                <path d="M0.298,-0.556C0.351,-0.556 0.397,-0.543 0.434,-0.516C0.47,-0.489 0.496,-0.454 0.511,-0.409L0.511,-0.74L0.602,-0.74L0.602,0L0.511,0L0.511,-0.14C0.496,-0.095 0.47,-0.06 0.434,-0.033C0.397,-0.006 0.351,0.007 0.298,0.007C0.249,0.007 0.206,-0.004 0.168,-0.027C0.13,-0.05 0.1,-0.082 0.079,-0.125C0.057,-0.167 0.046,-0.217 0.046,-0.274C0.046,-0.331 0.057,-0.381 0.079,-0.424C0.1,-0.467 0.13,-0.499 0.168,-0.522C0.206,-0.545 0.249,-0.556 0.298,-0.556ZM0.324,-0.475C0.268,-0.475 0.223,-0.457 0.19,-0.422C0.156,-0.386 0.139,-0.337 0.139,-0.274C0.139,-0.211 0.156,-0.162 0.19,-0.127C0.223,-0.091 0.268,-0.073 0.324,-0.073C0.36,-0.073 0.392,-0.081 0.421,-0.098C0.449,-0.115 0.471,-0.138 0.487,-0.169C0.503,-0.199 0.511,-0.234 0.511,-0.274C0.511,-0.314 0.503,-0.349 0.487,-0.38C0.471,-0.411 0.449,-0.434 0.421,-0.451C0.392,-0.467 0.36,-0.475 0.324,-0.475Z" style="fill:rgb(193,225,252);fill-rule:nonzero;"/>
            </g>
            <g transform="matrix(66.6667,0,0,66.6667,865.16,339.836)">
                <path d="M0.057,-0.71C0.057,-0.727 0.063,-0.74 0.074,-0.751C0.085,-0.761 0.1,-0.766 0.119,-0.766C0.138,-0.766 0.153,-0.761 0.164,-0.751C0.175,-0.74 0.181,-0.727 0.181,-0.71C0.181,-0.693 0.175,-0.68 0.164,-0.67C0.153,-0.659 0.138,-0.654 0.119,-0.654C0.1,-0.654 0.085,-0.659 0.074,-0.67C0.063,-0.68 0.057,-0.693 0.057,-0.71ZM0.164,-0.549L0.164,0L0.073,0L0.073,-0.549L0.164,-0.549Z" style="fill:rgb(193,225,252);fill-rule:nonzero;"/>
            </g>
            <g transform="matrix(66.6667,0,0,66.6667,880.96,339.836)">
                <path d="M0.578,-0.305C0.578,-0.286 0.577,-0.269 0.574,-0.255L0.135,-0.255C0.137,-0.192 0.155,-0.145 0.189,-0.114C0.222,-0.083 0.263,-0.067 0.312,-0.067C0.356,-0.067 0.393,-0.078 0.423,-0.101C0.452,-0.123 0.47,-0.153 0.477,-0.19L0.574,-0.19C0.567,-0.152 0.553,-0.118 0.53,-0.088C0.506,-0.058 0.477,-0.035 0.44,-0.018C0.403,-0.001 0.362,0.007 0.316,0.007C0.263,0.007 0.217,-0.004 0.176,-0.027C0.135,-0.05 0.103,-0.082 0.081,-0.125C0.057,-0.167 0.046,-0.217 0.046,-0.274C0.046,-0.331 0.057,-0.381 0.081,-0.424C0.103,-0.467 0.135,-0.499 0.176,-0.522C0.217,-0.545 0.263,-0.556 0.316,-0.556C0.369,-0.556 0.416,-0.545 0.456,-0.522C0.495,-0.499 0.526,-0.469 0.547,-0.431C0.568,-0.393 0.578,-0.351 0.578,-0.305ZM0.486,-0.299C0.488,-0.34 0.481,-0.374 0.466,-0.401C0.451,-0.428 0.43,-0.449 0.403,-0.462C0.376,-0.475 0.347,-0.482 0.316,-0.482C0.266,-0.482 0.224,-0.466 0.19,-0.436C0.156,-0.405 0.138,-0.359 0.135,-0.299L0.486,-0.299Z" style="fill:rgb(193,225,252);fill-rule:nonzero;"/>
            </g>
            <g transform="matrix(66.6667,0,0,66.6667,551.029,406.502)">
                <path d="M0.374,0L0.164,-0.247L0.164,0L0.073,0L0.073,-0.74L0.164,-0.74L0.164,-0.31L0.371,-0.549L0.482,-0.549L0.236,-0.276L0.488,0L0.374,0Z" style="fill:rgb(193,225,252);fill-rule:nonzero;"/>
            </g>
            <g transform="matrix(66.6667,0,0,66.6667,584.028,406.502)">
                <path d="M0.322,-0.556C0.375,-0.556 0.422,-0.545 0.464,-0.522C0.505,-0.499 0.538,-0.467 0.562,-0.424C0.585,-0.381 0.597,-0.331 0.597,-0.274C0.597,-0.217 0.585,-0.167 0.562,-0.125C0.538,-0.082 0.505,-0.05 0.464,-0.027C0.422,-0.004 0.375,0.007 0.322,0.007C0.269,0.007 0.222,-0.004 0.181,-0.027C0.139,-0.05 0.106,-0.082 0.082,-0.125C0.058,-0.167 0.046,-0.217 0.046,-0.274C0.046,-0.331 0.058,-0.381 0.082,-0.424C0.106,-0.467 0.139,-0.499 0.181,-0.522C0.222,-0.545 0.269,-0.556 0.322,-0.556ZM0.322,-0.476C0.289,-0.476 0.259,-0.469 0.232,-0.454C0.204,-0.439 0.182,-0.417 0.165,-0.387C0.148,-0.356 0.139,-0.319 0.139,-0.274C0.139,-0.23 0.148,-0.193 0.165,-0.163C0.182,-0.132 0.204,-0.11 0.232,-0.095C0.259,-0.08 0.289,-0.073 0.322,-0.073C0.355,-0.073 0.385,-0.08 0.413,-0.095C0.44,-0.11 0.463,-0.132 0.48,-0.163C0.497,-0.193 0.505,-0.23 0.505,-0.274C0.505,-0.319 0.497,-0.356 0.48,-0.387C0.463,-0.417 0.44,-0.439 0.413,-0.454C0.385,-0.469 0.355,-0.476 0.322,-0.476Z" style="fill:rgb(193,225,252);fill-rule:nonzero;"/>
            </g>
            <g transform="matrix(66.6667,0,0,66.6667,626.895,406.502)">
                <path d="M0.298,-0.556C0.351,-0.556 0.397,-0.543 0.434,-0.516C0.47,-0.489 0.496,-0.454 0.511,-0.409L0.511,-0.549L0.602,-0.549L0.602,0.009C0.602,0.06 0.591,0.105 0.57,0.144C0.549,0.183 0.519,0.214 0.48,0.236C0.441,0.258 0.396,0.269 0.345,0.269C0.271,0.269 0.211,0.251 0.164,0.216C0.117,0.18 0.088,0.132 0.075,0.071L0.165,0.071C0.176,0.108 0.196,0.136 0.226,0.158C0.255,0.179 0.293,0.189 0.34,0.189C0.389,0.189 0.43,0.173 0.463,0.142C0.495,0.11 0.511,0.066 0.511,0.009L0.511,-0.14C0.496,-0.095 0.47,-0.06 0.434,-0.033C0.397,-0.006 0.351,0.007 0.298,0.007C0.249,0.007 0.206,-0.004 0.168,-0.027C0.13,-0.05 0.1,-0.082 0.079,-0.125C0.057,-0.167 0.046,-0.217 0.046,-0.274C0.046,-0.331 0.057,-0.381 0.079,-0.424C0.1,-0.467 0.13,-0.499 0.168,-0.522C0.206,-0.545 0.249,-0.556 0.298,-0.556ZM0.324,-0.475C0.268,-0.475 0.223,-0.457 0.19,-0.422C0.156,-0.386 0.139,-0.337 0.139,-0.274C0.139,-0.211 0.156,-0.162 0.19,-0.127C0.223,-0.091 0.268,-0.073 0.324,-0.073C0.36,-0.073 0.392,-0.081 0.421,-0.098C0.449,-0.115 0.471,-0.138 0.487,-0.169C0.503,-0.199 0.511,-0.234 0.511,-0.274C0.511,-0.314 0.503,-0.349 0.487,-0.38C0.471,-0.411 0.449,-0.434 0.421,-0.451C0.392,-0.467 0.36,-0.475 0.324,-0.475Z" style="fill:rgb(193,225,252);fill-rule:nonzero;"/>
            </g>
            <g transform="matrix(66.6667,0,0,66.6667,671.828,406.502)">
                <path d="M0.362,-0.558C0.426,-0.558 0.478,-0.538 0.517,-0.497C0.556,-0.456 0.576,-0.396 0.576,-0.319L0.576,0L0.485,0L0.485,-0.311C0.485,-0.366 0.471,-0.408 0.443,-0.437C0.415,-0.466 0.377,-0.481 0.329,-0.481C0.279,-0.481 0.239,-0.465 0.209,-0.433C0.179,-0.4 0.164,-0.353 0.164,-0.291L0.164,0L0.073,0L0.073,-0.549L0.164,-0.549L0.164,-0.419C0.178,-0.464 0.203,-0.498 0.239,-0.522C0.274,-0.546 0.315,-0.558 0.362,-0.558Z" style="fill:rgb(193,225,252);fill-rule:nonzero;"/>
            </g>
            <g transform="matrix(66.6667,0,0,66.6667,714.694,406.502)">
                <path d="M0.057,-0.71C0.057,-0.727 0.063,-0.74 0.074,-0.751C0.085,-0.761 0.1,-0.766 0.119,-0.766C0.138,-0.766 0.153,-0.761 0.164,-0.751C0.175,-0.74 0.181,-0.727 0.181,-0.71C0.181,-0.693 0.175,-0.68 0.164,-0.67C0.153,-0.659 0.138,-0.654 0.119,-0.654C0.1,-0.654 0.085,-0.659 0.074,-0.67C0.063,-0.68 0.057,-0.693 0.057,-0.71ZM0.164,-0.549L0.164,0L0.073,0L0.073,-0.549L0.164,-0.549Z" style="fill:rgb(193,225,252);fill-rule:nonzero;"/>
            </g>
            <g transform="matrix(66.6667,0,0,66.6667,730.494,406.502)">
                <path d="M0.335,-0.08L0.335,0L0.267,0C0.211,0 0.169,-0.013 0.142,-0.04C0.114,-0.067 0.1,-0.111 0.1,-0.174L0.1,-0.47L0.018,-0.47L0.018,-0.549L0.1,-0.549L0.1,-0.686L0.192,-0.686L0.192,-0.549L0.334,-0.549L0.334,-0.47L0.192,-0.47L0.192,-0.172C0.192,-0.137 0.199,-0.113 0.212,-0.1C0.225,-0.087 0.247,-0.08 0.279,-0.08L0.335,-0.08Z" style="fill:rgb(193,225,252);fill-rule:nonzero;"/>
            </g>
            <g transform="matrix(66.6667,0,0,66.6667,755.361,406.502)">
                <path d="M0.057,-0.71C0.057,-0.727 0.063,-0.74 0.074,-0.751C0.085,-0.761 0.1,-0.766 0.119,-0.766C0.138,-0.766 0.153,-0.761 0.164,-0.751C0.175,-0.74 0.181,-0.727 0.181,-0.71C0.181,-0.693 0.175,-0.68 0.164,-0.67C0.153,-0.659 0.138,-0.654 0.119,-0.654C0.1,-0.654 0.085,-0.659 0.074,-0.67C0.063,-0.68 0.057,-0.693 0.057,-0.71ZM0.164,-0.549L0.164,0L0.073,0L0.073,-0.549L0.164,-0.549Z" style="fill:rgb(193,225,252);fill-rule:nonzero;"/>
            </g>
            <g transform="matrix(66.6667,0,0,66.6667,771.16,406.502)">
                <path d="M0.286,-0.097L0.456,-0.549L0.554,-0.549L0.339,0L0.231,0L0.016,-0.549L0.114,-0.549L0.286,-0.097Z" style="fill:rgb(193,225,252);fill-rule:nonzero;"/>
            </g>
            <g transform="matrix(66.6667,0,0,66.6667,809.16,406.502)">
                <path d="M0.578,-0.305C0.578,-0.286 0.577,-0.269 0.574,-0.255L0.135,-0.255C0.137,-0.192 0.155,-0.145 0.189,-0.114C0.222,-0.083 0.263,-0.067 0.312,-0.067C0.356,-0.067 0.393,-0.078 0.423,-0.101C0.452,-0.123 0.47,-0.153 0.477,-0.19L0.574,-0.19C0.567,-0.152 0.553,-0.118 0.53,-0.088C0.506,-0.058 0.477,-0.035 0.44,-0.018C0.403,-0.001 0.362,0.007 0.316,0.007C0.263,0.007 0.217,-0.004 0.176,-0.027C0.135,-0.05 0.103,-0.082 0.081,-0.125C0.057,-0.167 0.046,-0.217 0.046,-0.274C0.046,-0.331 0.057,-0.381 0.081,-0.424C0.103,-0.467 0.135,-0.499 0.176,-0.522C0.217,-0.545 0.263,-0.556 0.316,-0.556C0.369,-0.556 0.416,-0.545 0.456,-0.522C0.495,-0.499 0.526,-0.469 0.547,-0.431C0.568,-0.393 0.578,-0.351 0.578,-0.305ZM0.486,-0.299C0.488,-0.34 0.481,-0.374 0.466,-0.401C0.451,-0.428 0.43,-0.449 0.403,-0.462C0.376,-0.475 0.347,-0.482 0.316,-0.482C0.266,-0.482 0.224,-0.466 0.19,-0.436C0.156,-0.405 0.138,-0.359 0.135,-0.299L0.486,-0.299Z" style="fill:rgb(193,225,252);fill-rule:nonzero;"/>
            </g>
            <g transform="matrix(66.6667,0,0,66.6667,850.76,406.502)">
                <path d="M0.126,-0.067C0.135,-0.038 0.14,-0.01 0.14,0.015C0.14,0.05 0.131,0.078 0.114,0.099C0.097,0.12 0.071,0.13 0.036,0.13L0.036,0.091C0.053,0.091 0.065,0.087 0.073,0.078C0.08,0.069 0.084,0.054 0.084,0.035L0.084,0.026L0.033,0.026L0.033,-0.067L0.126,-0.067Z" style="fill:rgb(193,225,252);fill-rule:nonzero;"/>
            </g>
            <g transform="matrix(66.6667,0,0,66.6667,515.362,473.169)">
                <path d="M0.374,0L0.164,-0.247L0.164,0L0.073,0L0.073,-0.74L0.164,-0.74L0.164,-0.31L0.371,-0.549L0.482,-0.549L0.236,-0.276L0.488,0L0.374,0Z" style="fill:rgb(193,225,252);fill-rule:nonzero;"/>
            </g>
            <g transform="matrix(66.6667,0,0,66.6667,548.362,473.169)">
                <path d="M0.322,-0.556C0.375,-0.556 0.422,-0.545 0.464,-0.522C0.505,-0.499 0.538,-0.467 0.562,-0.424C0.585,-0.381 0.597,-0.331 0.597,-0.274C0.597,-0.217 0.585,-0.167 0.562,-0.125C0.538,-0.082 0.505,-0.05 0.464,-0.027C0.422,-0.004 0.375,0.007 0.322,0.007C0.269,0.007 0.222,-0.004 0.181,-0.027C0.139,-0.05 0.106,-0.082 0.082,-0.125C0.058,-0.167 0.046,-0.217 0.046,-0.274C0.046,-0.331 0.058,-0.381 0.082,-0.424C0.106,-0.467 0.139,-0.499 0.181,-0.522C0.222,-0.545 0.269,-0.556 0.322,-0.556ZM0.322,-0.476C0.289,-0.476 0.259,-0.469 0.232,-0.454C0.204,-0.439 0.182,-0.417 0.165,-0.387C0.148,-0.356 0.139,-0.319 0.139,-0.274C0.139,-0.23 0.148,-0.193 0.165,-0.163C0.182,-0.132 0.204,-0.11 0.232,-0.095C0.259,-0.08 0.289,-0.073 0.322,-0.073C0.355,-0.073 0.385,-0.08 0.413,-0.095C0.44,-0.11 0.463,-0.132 0.48,-0.163C0.497,-0.193 0.505,-0.23 0.505,-0.274C0.505,-0.319 0.497,-0.356 0.48,-0.387C0.463,-0.417 0.44,-0.439 0.413,-0.454C0.385,-0.469 0.355,-0.476 0.322,-0.476ZM0.189,-0.674C0.189,-0.688 0.194,-0.7 0.204,-0.71C0.213,-0.719 0.225,-0.724 0.239,-0.724C0.253,-0.724 0.265,-0.719 0.275,-0.71C0.284,-0.7 0.289,-0.688 0.289,-0.674C0.289,-0.661 0.284,-0.649 0.275,-0.64C0.265,-0.63 0.253,-0.625 0.239,-0.625C0.225,-0.625 0.213,-0.63 0.204,-0.64C0.194,-0.649 0.189,-0.661 0.189,-0.674ZM0.355,-0.674C0.355,-0.688 0.36,-0.7 0.37,-0.71C0.379,-0.719 0.391,-0.724 0.405,-0.724C0.419,-0.724 0.431,-0.719 0.441,-0.71C0.45,-0.7 0.455,-0.688 0.455,-0.674C0.455,-0.661 0.45,-0.649 0.441,-0.64C0.431,-0.63 0.419,-0.625 0.405,-0.625C0.391,-0.625 0.379,-0.63 0.37,-0.64C0.36,-0.649 0.355,-0.661 0.355,-0.674Z" style="fill:rgb(193,225,252);fill-rule:nonzero;"/>
            </g>
            <g transform="matrix(66.6667,0,0,66.6667,591.228,473.169)">
                <path d="M0.164,-0.438C0.182,-0.476 0.208,-0.505 0.243,-0.527C0.278,-0.548 0.319,-0.558 0.367,-0.558L0.367,-0.459L0.339,-0.459C0.288,-0.459 0.246,-0.446 0.213,-0.42C0.18,-0.393 0.164,-0.35 0.164,-0.289L0.164,0L0.073,0L0.073,-0.549L0.164,-0.549L0.164,-0.438Z" style="fill:rgb(193,225,252);fill-rule:nonzero;"/>
            </g>
            <g transform="matrix(66.6667,0,0,66.6667,616.828,473.169)">
                <path d="M0.376,-0.556C0.425,-0.556 0.468,-0.545 0.506,-0.522C0.544,-0.499 0.574,-0.467 0.596,-0.424C0.617,-0.381 0.628,-0.331 0.628,-0.274C0.628,-0.217 0.617,-0.167 0.596,-0.125C0.574,-0.082 0.544,-0.05 0.506,-0.027C0.468,-0.004 0.425,0.007 0.376,0.007C0.323,0.007 0.278,-0.007 0.241,-0.034C0.204,-0.061 0.178,-0.096 0.164,-0.14L0.164,0.26L0.073,0.26L0.073,-0.549L0.164,-0.549L0.164,-0.409C0.178,-0.453 0.204,-0.489 0.241,-0.516C0.278,-0.543 0.323,-0.556 0.376,-0.556ZM0.35,-0.475C0.315,-0.475 0.283,-0.467 0.254,-0.451C0.225,-0.434 0.203,-0.411 0.187,-0.38C0.171,-0.349 0.163,-0.314 0.163,-0.274C0.163,-0.234 0.171,-0.199 0.187,-0.169C0.203,-0.138 0.225,-0.115 0.254,-0.098C0.283,-0.081 0.315,-0.073 0.35,-0.073C0.407,-0.073 0.452,-0.091 0.486,-0.127C0.519,-0.162 0.536,-0.211 0.536,-0.274C0.536,-0.337 0.519,-0.386 0.486,-0.422C0.452,-0.457 0.407,-0.475 0.35,-0.475Z" style="fill:rgb(193,225,252);fill-rule:nonzero;"/>
            </g>
            <g transform="matrix(66.6667,0,0,66.6667,661.761,473.169)">
                <path d="M0.578,-0.305C0.578,-0.286 0.577,-0.269 0.574,-0.255L0.135,-0.255C0.137,-0.192 0.155,-0.145 0.189,-0.114C0.222,-0.083 0.263,-0.067 0.312,-0.067C0.356,-0.067 0.393,-0.078 0.423,-0.101C0.452,-0.123 0.47,-0.153 0.477,-0.19L0.574,-0.19C0.567,-0.152 0.553,-0.118 0.53,-0.088C0.506,-0.058 0.477,-0.035 0.44,-0.018C0.403,-0.001 0.362,0.007 0.316,0.007C0.263,0.007 0.217,-0.004 0.176,-0.027C0.135,-0.05 0.103,-0.082 0.081,-0.125C0.057,-0.167 0.046,-0.217 0.046,-0.274C0.046,-0.331 0.057,-0.381 0.081,-0.424C0.103,-0.467 0.135,-0.499 0.176,-0.522C0.217,-0.545 0.263,-0.556 0.316,-0.556C0.369,-0.556 0.416,-0.545 0.456,-0.522C0.495,-0.499 0.526,-0.469 0.547,-0.431C0.568,-0.393 0.578,-0.351 0.578,-0.305ZM0.486,-0.299C0.488,-0.34 0.481,-0.374 0.466,-0.401C0.451,-0.428 0.43,-0.449 0.403,-0.462C0.376,-0.475 0.347,-0.482 0.316,-0.482C0.266,-0.482 0.224,-0.466 0.19,-0.436C0.156,-0.405 0.138,-0.359 0.135,-0.299L0.486,-0.299Z" style="fill:rgb(193,225,252);fill-rule:nonzero;"/>
            </g>
            <g transform="matrix(66.6667,0,0,66.6667,703.361,473.169)">
                <path d="M0.164,-0.438C0.182,-0.476 0.208,-0.505 0.243,-0.527C0.278,-0.548 0.319,-0.558 0.367,-0.558L0.367,-0.459L0.339,-0.459C0.288,-0.459 0.246,-0.446 0.213,-0.42C0.18,-0.393 0.164,-0.35 0.164,-0.289L0.164,0L0.073,0L0.073,-0.549L0.164,-0.549L0.164,-0.438Z" style="fill:rgb(193,225,252);fill-rule:nonzero;"/>
            </g>
            <g transform="matrix(66.6667,0,0,66.6667,728.961,473.169)">
                <rect x="0.073" y="-0.74" width="0.091" height="0.74" style="fill:rgb(193,225,252);fill-rule:nonzero;"/>
            </g>
            <g transform="matrix(66.6667,0,0,66.6667,744.761,473.169)">
                <path d="M0.057,-0.71C0.057,-0.727 0.063,-0.74 0.074,-0.751C0.085,-0.761 0.1,-0.766 0.119,-0.766C0.138,-0.766 0.153,-0.761 0.164,-0.751C0.175,-0.74 0.181,-0.727 0.181,-0.71C0.181,-0.693 0.175,-0.68 0.164,-0.67C0.153,-0.659 0.138,-0.654 0.119,-0.654C0.1,-0.654 0.085,-0.659 0.074,-0.67C0.063,-0.68 0.057,-0.693 0.057,-0.71ZM0.164,-0.549L0.164,0L0.073,0L0.073,-0.549L0.164,-0.549Z" style="fill:rgb(193,225,252);fill-rule:nonzero;"/>
            </g>
            <g transform="matrix(66.6667,0,0,66.6667,760.56,473.169)">
                <path d="M0.316,-0.556C0.386,-0.556 0.444,-0.537 0.49,-0.5C0.536,-0.463 0.564,-0.413 0.575,-0.35L0.479,-0.35C0.472,-0.389 0.454,-0.42 0.425,-0.443C0.395,-0.465 0.358,-0.476 0.314,-0.476C0.282,-0.476 0.253,-0.469 0.227,-0.454C0.2,-0.439 0.179,-0.417 0.163,-0.387C0.147,-0.356 0.139,-0.319 0.139,-0.274C0.139,-0.229 0.147,-0.192 0.163,-0.162C0.179,-0.131 0.2,-0.109 0.227,-0.094C0.253,-0.079 0.282,-0.072 0.314,-0.072C0.358,-0.072 0.395,-0.083 0.425,-0.106C0.454,-0.129 0.472,-0.16 0.479,-0.199L0.575,-0.199C0.564,-0.136 0.536,-0.086 0.49,-0.049C0.444,-0.012 0.386,0.007 0.316,0.007C0.263,0.007 0.217,-0.004 0.176,-0.027C0.135,-0.05 0.103,-0.082 0.081,-0.125C0.057,-0.167 0.046,-0.217 0.046,-0.274C0.046,-0.331 0.057,-0.381 0.081,-0.424C0.103,-0.467 0.135,-0.499 0.176,-0.522C0.217,-0.545 0.263,-0.556 0.316,-0.556Z" style="fill:rgb(193,225,252);fill-rule:nonzero;"/>
            </g>
            <g transform="matrix(66.6667,0,0,66.6667,801.96,473.169)">
                <path d="M0.362,-0.558C0.426,-0.558 0.478,-0.538 0.517,-0.497C0.556,-0.456 0.576,-0.396 0.576,-0.319L0.576,0L0.485,0L0.485,-0.311C0.485,-0.366 0.471,-0.408 0.443,-0.437C0.415,-0.466 0.377,-0.481 0.329,-0.481C0.279,-0.481 0.239,-0.465 0.209,-0.433C0.179,-0.4 0.164,-0.353 0.164,-0.291L0.164,0L0.073,0L0.073,-0.74L0.164,-0.74L0.164,-0.419C0.178,-0.464 0.203,-0.498 0.239,-0.522C0.274,-0.546 0.315,-0.558 0.362,-0.558Z" style="fill:rgb(193,225,252);fill-rule:nonzero;"/>
            </g>
            <g transform="matrix(66.6667,0,0,66.6667,844.827,473.169)">
                <path d="M0.578,-0.305C0.578,-0.286 0.577,-0.269 0.574,-0.255L0.135,-0.255C0.137,-0.192 0.155,-0.145 0.189,-0.114C0.222,-0.083 0.263,-0.067 0.312,-0.067C0.356,-0.067 0.393,-0.078 0.423,-0.101C0.452,-0.123 0.47,-0.153 0.477,-0.19L0.574,-0.19C0.567,-0.152 0.553,-0.118 0.53,-0.088C0.506,-0.058 0.477,-0.035 0.44,-0.018C0.403,-0.001 0.362,0.007 0.316,0.007C0.263,0.007 0.217,-0.004 0.176,-0.027C0.135,-0.05 0.103,-0.082 0.081,-0.125C0.057,-0.167 0.046,-0.217 0.046,-0.274C0.046,-0.331 0.057,-0.381 0.081,-0.424C0.103,-0.467 0.135,-0.499 0.176,-0.522C0.217,-0.545 0.263,-0.556 0.316,-0.556C0.369,-0.556 0.416,-0.545 0.456,-0.522C0.495,-0.499 0.526,-0.469 0.547,-0.431C0.568,-0.393 0.578,-0.351 0.578,-0.305ZM0.486,-0.299C0.488,-0.34 0.481,-0.374 0.466,-0.401C0.451,-0.428 0.43,-0.449 0.403,-0.462C0.376,-0.475 0.347,-0.482 0.316,-0.482C0.266,-0.482 0.224,-0.466 0.19,-0.436C0.156,-0.405 0.138,-0.359 0.135,-0.299L0.486,-0.299Z" style="fill:rgb(193,225,252);fill-rule:nonzero;"/>
            </g>
            <g transform="matrix(66.6667,0,0,66.6667,886.426,473.169)">
                <path d="M0.126,-0.067C0.135,-0.038 0.14,-0.01 0.14,0.015C0.14,0.05 0.131,0.078 0.114,0.099C0.097,0.12 0.071,0.13 0.036,0.13L0.036,0.091C0.053,0.091 0.065,0.087 0.073,0.078C0.08,0.069 0.084,0.054 0.084,0.035L0.084,0.026L0.033,0.026L0.033,-0.067L0.126,-0.067Z" style="fill:rgb(193,225,252);fill-rule:nonzero;"/>
            </g>
            <g transform="matrix(66.6667,0,0,66.6667,411.496,539.836)">
                <path d="M0.578,-0.305C0.578,-0.286 0.577,-0.269 0.574,-0.255L0.135,-0.255C0.137,-0.192 0.155,-0.145 0.189,-0.114C0.222,-0.083 0.263,-0.067 0.312,-0.067C0.356,-0.067 0.393,-0.078 0.423,-0.101C0.452,-0.123 0.47,-0.153 0.477,-0.19L0.574,-0.19C0.567,-0.152 0.553,-0.118 0.53,-0.088C0.506,-0.058 0.477,-0.035 0.44,-0.018C0.403,-0.001 0.362,0.007 0.316,0.007C0.263,0.007 0.217,-0.004 0.176,-0.027C0.135,-0.05 0.103,-0.082 0.081,-0.125C0.057,-0.167 0.046,-0.217 0.046,-0.274C0.046,-0.331 0.057,-0.381 0.081,-0.424C0.103,-0.467 0.135,-0.499 0.176,-0.522C0.217,-0.545 0.263,-0.556 0.316,-0.556C0.369,-0.556 0.416,-0.545 0.456,-0.522C0.495,-0.499 0.526,-0.469 0.547,-0.431C0.568,-0.393 0.578,-0.351 0.578,-0.305ZM0.486,-0.299C0.488,-0.34 0.481,-0.374 0.466,-0.401C0.451,-0.428 0.43,-0.449 0.403,-0.462C0.376,-0.475 0.347,-0.482 0.316,-0.482C0.266,-0.482 0.224,-0.466 0.19,-0.436C0.156,-0.405 0.138,-0.359 0.135,-0.299L0.486,-0.299Z" style="fill:rgb(193,225,252);fill-rule:nonzero;"/>
            </g>
            <g transform="matrix(66.6667,0,0,66.6667,453.095,539.836)">
                <path d="M0.748,-0.558C0.812,-0.558 0.864,-0.538 0.903,-0.497C0.942,-0.456 0.961,-0.396 0.961,-0.319L0.961,0L0.87,0L0.87,-0.311C0.87,-0.365 0.857,-0.406 0.831,-0.435C0.804,-0.464 0.768,-0.478 0.722,-0.478C0.674,-0.478 0.636,-0.462 0.607,-0.431C0.578,-0.399 0.563,-0.352 0.563,-0.291L0.563,0L0.472,0L0.472,-0.311C0.472,-0.365 0.459,-0.406 0.432,-0.435C0.405,-0.464 0.369,-0.478 0.324,-0.478C0.275,-0.478 0.237,-0.462 0.208,-0.431C0.179,-0.399 0.164,-0.352 0.164,-0.291L0.164,0L0.073,0L0.073,-0.549L0.164,-0.549L0.164,-0.424C0.177,-0.467 0.201,-0.501 0.236,-0.524C0.27,-0.547 0.309,-0.558 0.354,-0.558C0.401,-0.558 0.441,-0.546 0.476,-0.523C0.51,-0.499 0.534,-0.464 0.549,-0.418C0.564,-0.463 0.59,-0.497 0.626,-0.522C0.662,-0.546 0.703,-0.558 0.748,-0.558Z" style="fill:rgb(193,225,252);fill-rule:nonzero;"/>
            </g>
            <g transform="matrix(66.6667,0,0,66.6667,521.695,539.836)">
                <path d="M0.376,-0.556C0.425,-0.556 0.468,-0.545 0.506,-0.522C0.544,-0.499 0.574,-0.467 0.596,-0.424C0.617,-0.381 0.628,-0.331 0.628,-0.274C0.628,-0.217 0.617,-0.167 0.596,-0.125C0.574,-0.082 0.544,-0.05 0.506,-0.027C0.468,-0.004 0.425,0.007 0.376,0.007C0.323,0.007 0.278,-0.007 0.241,-0.034C0.204,-0.061 0.178,-0.096 0.164,-0.14L0.164,0.26L0.073,0.26L0.073,-0.549L0.164,-0.549L0.164,-0.409C0.178,-0.453 0.204,-0.489 0.241,-0.516C0.278,-0.543 0.323,-0.556 0.376,-0.556ZM0.35,-0.475C0.315,-0.475 0.283,-0.467 0.254,-0.451C0.225,-0.434 0.203,-0.411 0.187,-0.38C0.171,-0.349 0.163,-0.314 0.163,-0.274C0.163,-0.234 0.171,-0.199 0.187,-0.169C0.203,-0.138 0.225,-0.115 0.254,-0.098C0.283,-0.081 0.315,-0.073 0.35,-0.073C0.407,-0.073 0.452,-0.091 0.486,-0.127C0.519,-0.162 0.536,-0.211 0.536,-0.274C0.536,-0.337 0.519,-0.386 0.486,-0.422C0.452,-0.457 0.407,-0.475 0.35,-0.475Z" style="fill:rgb(193,225,252);fill-rule:nonzero;"/>
            </g>
            <g transform="matrix(66.6667,0,0,66.6667,566.628,539.836)">
                <path d="M0.362,-0.558C0.426,-0.558 0.478,-0.538 0.517,-0.497C0.556,-0.456 0.576,-0.396 0.576,-0.319L0.576,0L0.485,0L0.485,-0.311C0.485,-0.366 0.471,-0.408 0.443,-0.437C0.415,-0.466 0.377,-0.481 0.329,-0.481C0.279,-0.481 0.239,-0.465 0.209,-0.433C0.179,-0.4 0.164,-0.353 0.164,-0.291L0.164,0L0.073,0L0.073,-0.74L0.164,-0.74L0.164,-0.419C0.178,-0.464 0.203,-0.498 0.239,-0.522C0.274,-0.546 0.315,-0.558 0.362,-0.558Z" style="fill:rgb(193,225,252);fill-rule:nonzero;"/>
            </g>
            <g transform="matrix(66.6667,0,0,66.6667,609.495,539.836)">
                <path d="M0.298,-0.556C0.351,-0.556 0.397,-0.543 0.434,-0.516C0.47,-0.489 0.496,-0.454 0.511,-0.409L0.511,-0.549L0.602,-0.549L0.602,0L0.511,0L0.511,-0.14C0.496,-0.095 0.47,-0.06 0.434,-0.033C0.397,-0.006 0.351,0.007 0.298,0.007C0.249,0.007 0.206,-0.004 0.168,-0.027C0.13,-0.05 0.1,-0.082 0.079,-0.125C0.057,-0.167 0.046,-0.217 0.046,-0.274C0.046,-0.331 0.057,-0.381 0.079,-0.424C0.1,-0.467 0.13,-0.499 0.168,-0.522C0.206,-0.545 0.249,-0.556 0.298,-0.556ZM0.324,-0.475C0.268,-0.475 0.223,-0.457 0.19,-0.422C0.156,-0.386 0.139,-0.337 0.139,-0.274C0.139,-0.211 0.156,-0.162 0.19,-0.127C0.223,-0.091 0.268,-0.073 0.324,-0.073C0.36,-0.073 0.392,-0.081 0.421,-0.098C0.449,-0.115 0.471,-0.138 0.487,-0.169C0.503,-0.199 0.511,-0.234 0.511,-0.274C0.511,-0.314 0.503,-0.349 0.487,-0.38C0.471,-0.411 0.449,-0.434 0.421,-0.451C0.392,-0.467 0.36,-0.475 0.324,-0.475Z" style="fill:rgb(193,225,252);fill-rule:nonzero;"/>
            </g>
            <g transform="matrix(66.6667,0,0,66.6667,654.428,539.836)">
                <path d="M0.335,-0.08L0.335,0L0.267,0C0.211,0 0.169,-0.013 0.142,-0.04C0.114,-0.067 0.1,-0.111 0.1,-0.174L0.1,-0.47L0.018,-0.47L0.018,-0.549L0.1,-0.549L0.1,-0.686L0.192,-0.686L0.192,-0.549L0.334,-0.549L0.334,-0.47L0.192,-0.47L0.192,-0.172C0.192,-0.137 0.199,-0.113 0.212,-0.1C0.225,-0.087 0.247,-0.08 0.279,-0.08L0.335,-0.08Z" style="fill:rgb(193,225,252);fill-rule:nonzero;"/>
            </g>
            <g transform="matrix(66.6667,0,0,66.6667,679.294,539.836)">
                <path d="M0.057,-0.71C0.057,-0.727 0.063,-0.74 0.074,-0.751C0.085,-0.761 0.1,-0.766 0.119,-0.766C0.138,-0.766 0.153,-0.761 0.164,-0.751C0.175,-0.74 0.181,-0.727 0.181,-0.71C0.181,-0.693 0.175,-0.68 0.164,-0.67C0.153,-0.659 0.138,-0.654 0.119,-0.654C0.1,-0.654 0.085,-0.659 0.074,-0.67C0.063,-0.68 0.057,-0.693 0.057,-0.71ZM0.164,-0.549L0.164,0L0.073,0L0.073,-0.549L0.164,-0.549Z" style="fill:rgb(193,225,252);fill-rule:nonzero;"/>
            </g>
            <g transform="matrix(66.6667,0,0,66.6667,695.094,539.836)">
                <path d="M0.245,-0.556C0.307,-0.556 0.357,-0.54 0.395,-0.508C0.432,-0.475 0.455,-0.432 0.463,-0.377L0.376,-0.377C0.372,-0.41 0.359,-0.436 0.336,-0.458C0.313,-0.478 0.282,-0.489 0.243,-0.489C0.21,-0.489 0.185,-0.481 0.167,-0.466C0.148,-0.45 0.139,-0.429 0.139,-0.402C0.139,-0.382 0.145,-0.366 0.158,-0.354C0.17,-0.341 0.185,-0.332 0.204,-0.326C0.222,-0.319 0.247,-0.312 0.279,-0.305C0.32,-0.296 0.353,-0.286 0.378,-0.277C0.403,-0.267 0.424,-0.251 0.442,-0.23C0.459,-0.209 0.468,-0.18 0.468,-0.144C0.468,-0.099 0.451,-0.063 0.418,-0.035C0.384,-0.007 0.339,0.007 0.283,0.007C0.218,0.007 0.164,-0.009 0.123,-0.04C0.082,-0.071 0.057,-0.115 0.05,-0.171L0.138,-0.171C0.141,-0.138 0.156,-0.111 0.182,-0.09C0.207,-0.069 0.241,-0.059 0.283,-0.059C0.314,-0.059 0.339,-0.067 0.357,-0.083C0.374,-0.099 0.383,-0.12 0.383,-0.146C0.383,-0.167 0.377,-0.184 0.364,-0.197C0.351,-0.21 0.336,-0.219 0.317,-0.226C0.298,-0.233 0.273,-0.24 0.24,-0.247C0.199,-0.256 0.167,-0.266 0.143,-0.275C0.118,-0.284 0.097,-0.299 0.081,-0.32C0.064,-0.34 0.055,-0.367 0.055,-0.402C0.055,-0.448 0.072,-0.485 0.106,-0.514C0.14,-0.542 0.186,-0.556 0.245,-0.556Z" style="fill:rgb(193,225,252);fill-rule:nonzero;"/>
            </g>
            <g transform="matrix(66.6667,0,0,66.6667,729.561,539.836)">
                <path d="M0.316,-0.556C0.386,-0.556 0.444,-0.537 0.49,-0.5C0.536,-0.463 0.564,-0.413 0.575,-0.35L0.479,-0.35C0.472,-0.389 0.454,-0.42 0.425,-0.443C0.395,-0.465 0.358,-0.476 0.314,-0.476C0.282,-0.476 0.253,-0.469 0.227,-0.454C0.2,-0.439 0.179,-0.417 0.163,-0.387C0.147,-0.356 0.139,-0.319 0.139,-0.274C0.139,-0.229 0.147,-0.192 0.163,-0.162C0.179,-0.131 0.2,-0.109 0.227,-0.094C0.253,-0.079 0.282,-0.072 0.314,-0.072C0.358,-0.072 0.395,-0.083 0.425,-0.106C0.454,-0.129 0.472,-0.16 0.479,-0.199L0.575,-0.199C0.564,-0.136 0.536,-0.086 0.49,-0.049C0.444,-0.012 0.386,0.007 0.316,0.007C0.263,0.007 0.217,-0.004 0.176,-0.027C0.135,-0.05 0.103,-0.082 0.081,-0.125C0.057,-0.167 0.046,-0.217 0.046,-0.274C0.046,-0.331 0.057,-0.381 0.081,-0.424C0.103,-0.467 0.135,-0.499 0.176,-0.522C0.217,-0.545 0.263,-0.556 0.316,-0.556Z" style="fill:rgb(193,225,252);fill-rule:nonzero;"/>
            </g>
            <g transform="matrix(66.6667,0,0,66.6667,770.96,539.836)">
                <path d="M0.362,-0.558C0.426,-0.558 0.478,-0.538 0.517,-0.497C0.556,-0.456 0.576,-0.396 0.576,-0.319L0.576,0L0.485,0L0.485,-0.311C0.485,-0.366 0.471,-0.408 0.443,-0.437C0.415,-0.466 0.377,-0.481 0.329,-0.481C0.279,-0.481 0.239,-0.465 0.209,-0.433C0.179,-0.4 0.164,-0.353 0.164,-0.291L0.164,0L0.073,0L0.073,-0.74L0.164,-0.74L0.164,-0.419C0.178,-0.464 0.203,-0.498 0.239,-0.522C0.274,-0.546 0.315,-0.558 0.362,-0.558Z" style="fill:rgb(193,225,252);fill-rule:nonzero;"/>
            </g>
            <g transform="matrix(66.6667,0,0,66.6667,813.827,539.836)">
                <path d="M0.578,-0.305C0.578,-0.286 0.577,-0.269 0.574,-0.255L0.135,-0.255C0.137,-0.192 0.155,-0.145 0.189,-0.114C0.222,-0.083 0.263,-0.067 0.312,-0.067C0.356,-0.067 0.393,-0.078 0.423,-0.101C0.452,-0.123 0.47,-0.153 0.477,-0.19L0.574,-0.19C0.567,-0.152 0.553,-0.118 0.53,-0.088C0.506,-0.058 0.477,-0.035 0.44,-0.018C0.403,-0.001 0.362,0.007 0.316,0.007C0.263,0.007 0.217,-0.004 0.176,-0.027C0.135,-0.05 0.103,-0.082 0.081,-0.125C0.057,-0.167 0.046,-0.217 0.046,-0.274C0.046,-0.331 0.057,-0.381 0.081,-0.424C0.103,-0.467 0.135,-0.499 0.176,-0.522C0.217,-0.545 0.263,-0.556 0.316,-0.556C0.369,-0.556 0.416,-0.545 0.456,-0.522C0.495,-0.499 0.526,-0.469 0.547,-0.431C0.568,-0.393 0.578,-0.351 0.578,-0.305ZM0.486,-0.299C0.488,-0.34 0.481,-0.374 0.466,-0.401C0.451,-0.428 0.43,-0.449 0.403,-0.462C0.376,-0.475 0.347,-0.482 0.316,-0.482C0.266,-0.482 0.224,-0.466 0.19,-0.436C0.156,-0.405 0.138,-0.359 0.135,-0.299L0.486,-0.299Z" style="fill:rgb(193,225,252);fill-rule:nonzero;"/>
            </g>
            <g transform="matrix(66.6667,0,0,66.6667,871.893,539.836)">
                <path d="M0.561,-0.549L0.561,0L0.47,0L0.47,-0.129C0.456,-0.084 0.431,-0.05 0.396,-0.027C0.36,-0.003 0.318,0.009 0.271,0.009C0.208,0.009 0.156,-0.011 0.117,-0.053C0.078,-0.094 0.058,-0.152 0.058,-0.229L0.058,-0.549L0.149,-0.549L0.149,-0.238C0.149,-0.183 0.163,-0.141 0.191,-0.112C0.219,-0.082 0.257,-0.067 0.305,-0.067C0.355,-0.067 0.395,-0.083 0.425,-0.116C0.455,-0.148 0.47,-0.195 0.47,-0.257L0.47,-0.549L0.561,-0.549Z" style="fill:rgb(193,225,252);fill-rule:nonzero;"/>
            </g>
            <g transform="matrix(66.6667,0,0,66.6667,914.16,539.836)">
                <path d="M0.362,-0.558C0.426,-0.558 0.478,-0.538 0.517,-0.497C0.556,-0.456 0.576,-0.396 0.576,-0.319L0.576,0L0.485,0L0.485,-0.311C0.485,-0.366 0.471,-0.408 0.443,-0.437C0.415,-0.466 0.377,-0.481 0.329,-0.481C0.279,-0.481 0.239,-0.465 0.209,-0.433C0.179,-0.4 0.164,-0.353 0.164,-0.291L0.164,0L0.073,0L0.073,-0.549L0.164,-0.549L0.164,-0.419C0.178,-0.464 0.203,-0.498 0.239,-0.522C0.274,-0.546 0.315,-0.558 0.362,-0.558Z" style="fill:rgb(193,225,252);fill-rule:nonzero;"/>
            </g>
            <g transform="matrix(66.6667,0,0,66.6667,957.026,539.836)">
                <path d="M0.298,-0.556C0.351,-0.556 0.397,-0.543 0.434,-0.516C0.47,-0.489 0.496,-0.454 0.511,-0.409L0.511,-0.74L0.602,-0.74L0.602,0L0.511,0L0.511,-0.14C0.496,-0.095 0.47,-0.06 0.434,-0.033C0.397,-0.006 0.351,0.007 0.298,0.007C0.249,0.007 0.206,-0.004 0.168,-0.027C0.13,-0.05 0.1,-0.082 0.079,-0.125C0.057,-0.167 0.046,-0.217 0.046,-0.274C0.046,-0.331 0.057,-0.381 0.079,-0.424C0.1,-0.467 0.13,-0.499 0.168,-0.522C0.206,-0.545 0.249,-0.556 0.298,-0.556ZM0.324,-0.475C0.268,-0.475 0.223,-0.457 0.19,-0.422C0.156,-0.386 0.139,-0.337 0.139,-0.274C0.139,-0.211 0.156,-0.162 0.19,-0.127C0.223,-0.091 0.268,-0.073 0.324,-0.073C0.36,-0.073 0.392,-0.081 0.421,-0.098C0.449,-0.115 0.471,-0.138 0.487,-0.169C0.503,-0.199 0.511,-0.234 0.511,-0.274C0.511,-0.314 0.503,-0.349 0.487,-0.38C0.471,-0.411 0.449,-0.434 0.421,-0.451C0.392,-0.467 0.36,-0.475 0.324,-0.475Z" style="fill:rgb(193,225,252);fill-rule:nonzero;"/>
            </g>
            <g transform="matrix(66.6667,0,0,66.6667,594.128,606.502)">
                <path d="M0.245,-0.556C0.307,-0.556 0.357,-0.54 0.395,-0.508C0.432,-0.475 0.455,-0.432 0.463,-0.377L0.376,-0.377C0.372,-0.41 0.359,-0.436 0.336,-0.458C0.313,-0.478 0.282,-0.489 0.243,-0.489C0.21,-0.489 0.185,-0.481 0.167,-0.466C0.148,-0.45 0.139,-0.429 0.139,-0.402C0.139,-0.382 0.145,-0.366 0.158,-0.354C0.17,-0.341 0.185,-0.332 0.204,-0.326C0.222,-0.319 0.247,-0.312 0.279,-0.305C0.32,-0.296 0.353,-0.286 0.378,-0.277C0.403,-0.267 0.424,-0.251 0.442,-0.23C0.459,-0.209 0.468,-0.18 0.468,-0.144C0.468,-0.099 0.451,-0.063 0.418,-0.035C0.384,-0.007 0.339,0.007 0.283,0.007C0.218,0.007 0.164,-0.009 0.123,-0.04C0.082,-0.071 0.057,-0.115 0.05,-0.171L0.138,-0.171C0.141,-0.138 0.156,-0.111 0.182,-0.09C0.207,-0.069 0.241,-0.059 0.283,-0.059C0.314,-0.059 0.339,-0.067 0.357,-0.083C0.374,-0.099 0.383,-0.12 0.383,-0.146C0.383,-0.167 0.377,-0.184 0.364,-0.197C0.351,-0.21 0.336,-0.219 0.317,-0.226C0.298,-0.233 0.273,-0.24 0.24,-0.247C0.199,-0.256 0.167,-0.266 0.143,-0.275C0.118,-0.284 0.097,-0.299 0.081,-0.32C0.064,-0.34 0.055,-0.367 0.055,-0.402C0.055,-0.448 0.072,-0.485 0.106,-0.514C0.14,-0.542 0.186,-0.556 0.245,-0.556Z" style="fill:rgb(193,225,252);fill-rule:nonzero;"/>
            </g>
            <g transform="matrix(66.6667,0,0,66.6667,628.595,606.502)">
                <path d="M0.322,-0.556C0.375,-0.556 0.422,-0.545 0.464,-0.522C0.505,-0.499 0.538,-0.467 0.562,-0.424C0.585,-0.381 0.597,-0.331 0.597,-0.274C0.597,-0.217 0.585,-0.167 0.562,-0.125C0.538,-0.082 0.505,-0.05 0.464,-0.027C0.422,-0.004 0.375,0.007 0.322,0.007C0.269,0.007 0.222,-0.004 0.181,-0.027C0.139,-0.05 0.106,-0.082 0.082,-0.125C0.058,-0.167 0.046,-0.217 0.046,-0.274C0.046,-0.331 0.058,-0.381 0.082,-0.424C0.106,-0.467 0.139,-0.499 0.181,-0.522C0.222,-0.545 0.269,-0.556 0.322,-0.556ZM0.322,-0.476C0.289,-0.476 0.259,-0.469 0.232,-0.454C0.204,-0.439 0.182,-0.417 0.165,-0.387C0.148,-0.356 0.139,-0.319 0.139,-0.274C0.139,-0.23 0.148,-0.193 0.165,-0.163C0.182,-0.132 0.204,-0.11 0.232,-0.095C0.259,-0.08 0.289,-0.073 0.322,-0.073C0.355,-0.073 0.385,-0.08 0.413,-0.095C0.44,-0.11 0.463,-0.132 0.48,-0.163C0.497,-0.193 0.505,-0.23 0.505,-0.274C0.505,-0.319 0.497,-0.356 0.48,-0.387C0.463,-0.417 0.44,-0.439 0.413,-0.454C0.385,-0.469 0.355,-0.476 0.322,-0.476Z" style="fill:rgb(193,225,252);fill-rule:nonzero;"/>
            </g>
            <g transform="matrix(66.6667,0,0,66.6667,671.461,606.502)">
                <path d="M0.126,-0.077L0.42,-0.077L0.42,0L0.026,0L0.026,-0.073L0.306,-0.472L0.034,-0.472L0.034,-0.549L0.41,-0.549L0.41,-0.475L0.126,-0.077Z" style="fill:rgb(193,225,252);fill-rule:nonzero;"/>
            </g>
            <g transform="matrix(66.6667,0,0,66.6667,701.194,606.502)">
                <path d="M0.057,-0.71C0.057,-0.727 0.063,-0.74 0.074,-0.751C0.085,-0.761 0.1,-0.766 0.119,-0.766C0.138,-0.766 0.153,-0.761 0.164,-0.751C0.175,-0.74 0.181,-0.727 0.181,-0.71C0.181,-0.693 0.175,-0.68 0.164,-0.67C0.153,-0.659 0.138,-0.654 0.119,-0.654C0.1,-0.654 0.085,-0.659 0.074,-0.67C0.063,-0.68 0.057,-0.693 0.057,-0.71ZM0.164,-0.549L0.164,0L0.073,0L0.073,-0.549L0.164,-0.549Z" style="fill:rgb(193,225,252);fill-rule:nonzero;"/>
            </g>
            <g transform="matrix(66.6667,0,0,66.6667,716.994,606.502)">
                <path d="M0.298,-0.556C0.351,-0.556 0.397,-0.543 0.434,-0.516C0.47,-0.489 0.496,-0.454 0.511,-0.409L0.511,-0.549L0.602,-0.549L0.602,0L0.511,0L0.511,-0.14C0.496,-0.095 0.47,-0.06 0.434,-0.033C0.397,-0.006 0.351,0.007 0.298,0.007C0.249,0.007 0.206,-0.004 0.168,-0.027C0.13,-0.05 0.1,-0.082 0.079,-0.125C0.057,-0.167 0.046,-0.217 0.046,-0.274C0.046,-0.331 0.057,-0.381 0.079,-0.424C0.1,-0.467 0.13,-0.499 0.168,-0.522C0.206,-0.545 0.249,-0.556 0.298,-0.556ZM0.324,-0.475C0.268,-0.475 0.223,-0.457 0.19,-0.422C0.156,-0.386 0.139,-0.337 0.139,-0.274C0.139,-0.211 0.156,-0.162 0.19,-0.127C0.223,-0.091 0.268,-0.073 0.324,-0.073C0.36,-0.073 0.392,-0.081 0.421,-0.098C0.449,-0.115 0.471,-0.138 0.487,-0.169C0.503,-0.199 0.511,-0.234 0.511,-0.274C0.511,-0.314 0.503,-0.349 0.487,-0.38C0.471,-0.411 0.449,-0.434 0.421,-0.451C0.392,-0.467 0.36,-0.475 0.324,-0.475Z" style="fill:rgb(193,225,252);fill-rule:nonzero;"/>
            </g>
            <g transform="matrix(66.6667,0,0,66.6667,761.927,606.502)">
                <rect x="0.073" y="-0.74" width="0.091" height="0.74" style="fill:rgb(193,225,252);fill-rule:nonzero;"/>
            </g>
            <g transform="matrix(66.6667,0,0,66.6667,777.727,606.502)">
                <path d="M0.578,-0.305C0.578,-0.286 0.577,-0.269 0.574,-0.255L0.135,-0.255C0.137,-0.192 0.155,-0.145 0.189,-0.114C0.222,-0.083 0.263,-0.067 0.312,-0.067C0.356,-0.067 0.393,-0.078 0.423,-0.101C0.452,-0.123 0.47,-0.153 0.477,-0.19L0.574,-0.19C0.567,-0.152 0.553,-0.118 0.53,-0.088C0.506,-0.058 0.477,-0.035 0.44,-0.018C0.403,-0.001 0.362,0.007 0.316,0.007C0.263,0.007 0.217,-0.004 0.176,-0.027C0.135,-0.05 0.103,-0.082 0.081,-0.125C0.057,-0.167 0.046,-0.217 0.046,-0.274C0.046,-0.331 0.057,-0.381 0.081,-0.424C0.103,-0.467 0.135,-0.499 0.176,-0.522C0.217,-0.545 0.263,-0.556 0.316,-0.556C0.369,-0.556 0.416,-0.545 0.456,-0.522C0.495,-0.499 0.526,-0.469 0.547,-0.431C0.568,-0.393 0.578,-0.351 0.578,-0.305ZM0.486,-0.299C0.488,-0.34 0.481,-0.374 0.466,-0.401C0.451,-0.428 0.43,-0.449 0.403,-0.462C0.376,-0.475 0.347,-0.482 0.316,-0.482C0.266,-0.482 0.224,-0.466 0.19,-0.436C0.156,-0.405 0.138,-0.359 0.135,-0.299L0.486,-0.299Z" style="fill:rgb(193,225,252);fill-rule:nonzero;"/>
            </g>
            <g transform="matrix(66.6667,0,0,66.6667,509.995,673.169)">
                <path d="M0.164,-0.631L0.164,-0.39L0.432,-0.39L0.432,-0.32L0.164,-0.32L0.164,-0.074L0.462,-0.074L0.462,0L0.073,0L0.073,-0.705L0.462,-0.705L0.462,-0.631L0.164,-0.631Z" style="fill:rgb(193,225,252);fill-rule:nonzero;"/>
            </g>
            <g transform="matrix(66.6667,0,0,66.6667,543.728,673.169)">
                <path d="M0.362,-0.558C0.426,-0.558 0.478,-0.538 0.517,-0.497C0.556,-0.456 0.576,-0.396 0.576,-0.319L0.576,0L0.485,0L0.485,-0.311C0.485,-0.366 0.471,-0.408 0.443,-0.437C0.415,-0.466 0.377,-0.481 0.329,-0.481C0.279,-0.481 0.239,-0.465 0.209,-0.433C0.179,-0.4 0.164,-0.353 0.164,-0.291L0.164,0L0.073,0L0.073,-0.549L0.164,-0.549L0.164,-0.419C0.178,-0.464 0.203,-0.498 0.239,-0.522C0.274,-0.546 0.315,-0.558 0.362,-0.558Z" style="fill:rgb(193,225,252);fill-rule:nonzero;"/>
            </g>
            <g transform="matrix(66.6667,0,0,66.6667,586.595,673.169)">
                <path d="M0.335,-0.08L0.335,0L0.267,0C0.211,0 0.169,-0.013 0.142,-0.04C0.114,-0.067 0.1,-0.111 0.1,-0.174L0.1,-0.47L0.018,-0.47L0.018,-0.549L0.1,-0.549L0.1,-0.686L0.192,-0.686L0.192,-0.549L0.334,-0.549L0.334,-0.47L0.192,-0.47L0.192,-0.172C0.192,-0.137 0.199,-0.113 0.212,-0.1C0.225,-0.087 0.247,-0.08 0.279,-0.08L0.335,-0.08Z" style="fill:rgb(193,225,252);fill-rule:nonzero;"/>
            </g>
            <g transform="matrix(66.6667,0,0,66.6667,611.461,673.169)">
                <path d="M0.827,-0.549L0.669,0L0.571,0L0.42,-0.447L0.268,0L0.169,0L0.013,-0.549L0.105,-0.549L0.222,-0.087L0.374,-0.549L0.469,-0.549L0.622,-0.088L0.74,-0.549L0.827,-0.549Z" style="fill:rgb(193,225,252);fill-rule:nonzero;"/>
            </g>
            <g transform="matrix(66.6667,0,0,66.6667,667.394,673.169)">
                <path d="M0.057,-0.71C0.057,-0.727 0.063,-0.74 0.074,-0.751C0.085,-0.761 0.1,-0.766 0.119,-0.766C0.138,-0.766 0.153,-0.761 0.164,-0.751C0.175,-0.74 0.181,-0.727 0.181,-0.71C0.181,-0.693 0.175,-0.68 0.164,-0.67C0.153,-0.659 0.138,-0.654 0.119,-0.654C0.1,-0.654 0.085,-0.659 0.074,-0.67C0.063,-0.68 0.057,-0.693 0.057,-0.71ZM0.164,-0.549L0.164,0L0.073,0L0.073,-0.549L0.164,-0.549Z" style="fill:rgb(193,225,252);fill-rule:nonzero;"/>
            </g>
            <g transform="matrix(66.6667,0,0,66.6667,683.194,673.169)">
                <path d="M0.316,-0.556C0.386,-0.556 0.444,-0.537 0.49,-0.5C0.536,-0.463 0.564,-0.413 0.575,-0.35L0.479,-0.35C0.472,-0.389 0.454,-0.42 0.425,-0.443C0.395,-0.465 0.358,-0.476 0.314,-0.476C0.282,-0.476 0.253,-0.469 0.227,-0.454C0.2,-0.439 0.179,-0.417 0.163,-0.387C0.147,-0.356 0.139,-0.319 0.139,-0.274C0.139,-0.229 0.147,-0.192 0.163,-0.162C0.179,-0.131 0.2,-0.109 0.227,-0.094C0.253,-0.079 0.282,-0.072 0.314,-0.072C0.358,-0.072 0.395,-0.083 0.425,-0.106C0.454,-0.129 0.472,-0.16 0.479,-0.199L0.575,-0.199C0.564,-0.136 0.536,-0.086 0.49,-0.049C0.444,-0.012 0.386,0.007 0.316,0.007C0.263,0.007 0.217,-0.004 0.176,-0.027C0.135,-0.05 0.103,-0.082 0.081,-0.125C0.057,-0.167 0.046,-0.217 0.046,-0.274C0.046,-0.331 0.057,-0.381 0.081,-0.424C0.103,-0.467 0.135,-0.499 0.176,-0.522C0.217,-0.545 0.263,-0.556 0.316,-0.556Z" style="fill:rgb(193,225,252);fill-rule:nonzero;"/>
            </g>
            <g transform="matrix(66.6667,0,0,66.6667,724.594,673.169)">
                <path d="M0.374,0L0.164,-0.247L0.164,0L0.073,0L0.073,-0.74L0.164,-0.74L0.164,-0.31L0.371,-0.549L0.482,-0.549L0.236,-0.276L0.488,0L0.374,0Z" style="fill:rgb(193,225,252);fill-rule:nonzero;"/>
            </g>
            <g transform="matrix(66.6667,0,0,66.6667,757.594,673.169)">
                <rect x="0.073" y="-0.74" width="0.091" height="0.74" style="fill:rgb(193,225,252);fill-rule:nonzero;"/>
            </g>
            <g transform="matrix(66.6667,0,0,66.6667,773.394,673.169)">
                <path d="M0.561,-0.549L0.561,0L0.47,0L0.47,-0.129C0.456,-0.084 0.431,-0.05 0.396,-0.027C0.36,-0.003 0.318,0.009 0.271,0.009C0.208,0.009 0.156,-0.011 0.117,-0.053C0.078,-0.094 0.058,-0.152 0.058,-0.229L0.058,-0.549L0.149,-0.549L0.149,-0.238C0.149,-0.183 0.163,-0.141 0.191,-0.112C0.219,-0.082 0.257,-0.067 0.305,-0.067C0.355,-0.067 0.395,-0.083 0.425,-0.116C0.455,-0.148 0.47,-0.195 0.47,-0.257L0.47,-0.549L0.561,-0.549Z" style="fill:rgb(193,225,252);fill-rule:nonzero;"/>
            </g>
            <g transform="matrix(66.6667,0,0,66.6667,815.66,673.169)">
                <path d="M0.362,-0.558C0.426,-0.558 0.478,-0.538 0.517,-0.497C0.556,-0.456 0.576,-0.396 0.576,-0.319L0.576,0L0.485,0L0.485,-0.311C0.485,-0.366 0.471,-0.408 0.443,-0.437C0.415,-0.466 0.377,-0.481 0.329,-0.481C0.279,-0.481 0.239,-0.465 0.209,-0.433C0.179,-0.4 0.164,-0.353 0.164,-0.291L0.164,0L0.073,0L0.073,-0.549L0.164,-0.549L0.164,-0.419C0.178,-0.464 0.203,-0.498 0.239,-0.522C0.274,-0.546 0.315,-0.558 0.362,-0.558Z" style="fill:rgb(193,225,252);fill-rule:nonzero;"/>
            </g>
            <g transform="matrix(66.6667,0,0,66.6667,858.527,673.169)">
                <path d="M0.298,-0.556C0.351,-0.556 0.397,-0.543 0.434,-0.516C0.47,-0.489 0.496,-0.454 0.511,-0.409L0.511,-0.549L0.602,-0.549L0.602,0.009C0.602,0.06 0.591,0.105 0.57,0.144C0.549,0.183 0.519,0.214 0.48,0.236C0.441,0.258 0.396,0.269 0.345,0.269C0.271,0.269 0.211,0.251 0.164,0.216C0.117,0.18 0.088,0.132 0.075,0.071L0.165,0.071C0.176,0.108 0.196,0.136 0.226,0.158C0.255,0.179 0.293,0.189 0.34,0.189C0.389,0.189 0.43,0.173 0.463,0.142C0.495,0.11 0.511,0.066 0.511,0.009L0.511,-0.14C0.496,-0.095 0.47,-0.06 0.434,-0.033C0.397,-0.006 0.351,0.007 0.298,0.007C0.249,0.007 0.206,-0.004 0.168,-0.027C0.13,-0.05 0.1,-0.082 0.079,-0.125C0.057,-0.167 0.046,-0.217 0.046,-0.274C0.046,-0.331 0.057,-0.381 0.079,-0.424C0.1,-0.467 0.13,-0.499 0.168,-0.522C0.206,-0.545 0.249,-0.556 0.298,-0.556ZM0.324,-0.475C0.268,-0.475 0.223,-0.457 0.19,-0.422C0.156,-0.386 0.139,-0.337 0.139,-0.274C0.139,-0.211 0.156,-0.162 0.19,-0.127C0.223,-0.091 0.268,-0.073 0.324,-0.073C0.36,-0.073 0.392,-0.081 0.421,-0.098C0.449,-0.115 0.471,-0.138 0.487,-0.169C0.503,-0.199 0.511,-0.234 0.511,-0.274C0.511,-0.314 0.503,-0.349 0.487,-0.38C0.471,-0.411 0.449,-0.434 0.421,-0.451C0.392,-0.467 0.36,-0.475 0.324,-0.475Z" style="fill:rgb(193,225,252);fill-rule:nonzero;"/>
            </g>
        </g>
    </g>
    <g transform="matrix(4.16667,0,0,4.16667,993.181,215.244)">
        <g id="_-Layer-" serif:id="&lt;Layer&gt;">
        </g>
    </g>
</svg>
